<?xml version="1.0" encoding="UTF-8"?>
<!DOCTYPE svg PUBLIC "-//W3C//DTD SVG 1.1//EN" "http://www.w3.org/Graphics/SVG/1.1/DTD/svg11.dtd">
<!-- Creator: CorelDRAW -->
<svg xmlns="http://www.w3.org/2000/svg" xml:space="preserve" width="84.6666mm" height="84.6666mm" version="1.1" style="shape-rendering:geometricPrecision; text-rendering:geometricPrecision; image-rendering:optimizeQuality; fill-rule:evenodd; clip-rule:evenodd"
viewBox="0 0 8466.66 8466.66"
 xmlns:xlink="http://www.w3.org/1999/xlink"
 xmlns:xodm="http://www.corel.com/coreldraw/odm/2003">
 <defs>
  <style type="text/css">
   <![CDATA[
    .fil6 {fill:#131111}
    .fil3 {fill:#2D2541}
    .fil11 {fill:#3A3677}
    .fil14 {fill:#551D31}
    .fil0 {fill:#7281AA}
    .fil1 {fill:#787383}
    .fil8 {fill:#842A2B}
    .fil10 {fill:#875356}
    .fil5 {fill:#AC8583}
    .fil13 {fill:#B094B1}
    .fil9 {fill:#BD6357}
    .fil2 {fill:#C6B9A7}
    .fil12 {fill:#D3866D}
    .fil7 {fill:#D3BCDC}
    .fil15 {fill:#E9EEF3}
    .fil4 {fill:#EAD2A2}
   ]]>
  </style>
 </defs>
 <g id="Camada_x0020_1">
  <metadata id="CorelCorpID_0Corel-Layer"/>
  <g id="_1972060765008">
   <path class="fil0" d="M1720.54 7323.66c18.86,31.82 35.85,39.37 66.17,59.27 62.82,-93.89 152.02,-211.3 223.46,-300.93 44.88,-56.3 225.06,-240 243.81,-281.04 8.82,-80.51 15.2,-176.13 64.26,-240.75 73.5,-96.81 121.13,-148.66 217.2,-212.91 61.37,-41.05 131.32,-141.58 140.7,-149.28 41.85,-34.35 48.18,14.89 111.26,-20.98 40.86,95.29 3.72,121.32 -49.65,193.1 -62.75,84.4 -178.79,236.37 -251.99,306.71 -45.77,43.98 -104.16,90.26 -145.42,134.06 -151.94,161.27 -385.82,430.84 -487.4,622.82 433.93,375.88 1105.68,660.72 1664.52,775.14 658.2,134.76 1505.39,105.97 2136.17,-140.14 12.8,-47.01 49.19,-100.6 73.27,-142.95 46.98,-27.97 25.07,33.73 99.57,-100.16 39.28,-70.6 54.05,-256.31 206.38,-74.65 19.69,23.48 84.37,99.07 105.48,111.56 283.03,-89.21 1093.1,-708.41 1236.13,-966.53l-191.62 -607.5c-30.39,-93.21 -37.78,-174.34 -85.02,-184.2 -704.51,389.9 -2046.83,637.27 -2857.25,585.16 -379.67,-24.41 -546.64,-58.43 -787.37,-363.41 -281.46,-356.57 -210.42,-701.99 -307.46,-843.69 -80.89,-118.1 -254.18,-9.94 -352.77,36.83 -127.68,60.57 -257.43,126.54 -381.12,194.88 -341.1,188.48 -444.67,266.46 -484.76,665.48 -30.08,299.3 -114.88,656.81 -206.55,944.11z"/>
   <path class="fil1" d="M3433.53 2053.17c2.71,-0.8 22.89,10.3 25.6,11.12 24.02,7.26 34.93,4.84 56.1,9.96 54.64,13.2 -8.74,48.28 -26.35,60.3l-381.62 312.34c-24.11,25.72 -56.96,67.41 -82.61,88.08 -32.32,26.04 -70.43,36.91 -98.79,68.86 -6.47,7.28 -56.88,88.22 -68.13,55.26 -9.57,-28.05 30.63,-79.2 46.79,-101.91 101.92,-143.27 401.43,-466.4 529.01,-504.01zm-1165.48 2186.89l28.35 -2.61 8.51 138.91 -2.2 158.16c24.13,-114.02 6.55,-295.33 28.33,-319.85 29.84,17.4 19.51,493.28 21.91,560.48 7.32,204.9 72.05,573.39 161.1,761.87 39.17,82.9 111.24,13.71 177.74,-19.12 122.38,-60.4 300.5,-144.49 430.77,-175.48 21.21,-75.76 0.03,-99.36 -37.8,-163.14 -46.33,-78.11 -162.55,-374.74 -189.81,-461.11 -37.24,-118.01 -104.04,-413.03 -109.02,-544.19 -3.62,-95.32 -24.17,-89.3 -56.66,-169.26 -71.57,-299.73 -80.4,-620.03 98.17,-881.18 38.75,-56.66 21.41,-41.84 61.63,-29.56 23.67,7.23 6.99,-56.86 21.09,-84.55 40.85,-80.19 274.87,-299.98 351.83,-366.01 108.38,-92.99 303.6,-202.04 431.31,-273.56 19.99,-31.02 16.46,-48.21 48.05,-70 88.18,-60.83 85.41,-63.71 170.14,-140.82 70.86,-64.49 142.12,-136.68 211.65,-204 124.25,-120.31 298.01,-308.91 430.99,-407.81 38.11,27.12 -25.5,111.66 -44.5,142.05 -54.28,86.84 -61.31,68.79 -35.6,176.22 20.49,85.66 120.09,263.15 170.54,340.58 198.1,303.99 250.88,312.86 504.49,501.06 83.63,9.26 272.91,182.51 249.76,262.19 -73.7,22.18 -63.53,-46.87 -111.4,-52.59l16.76 75.08c49.48,147.33 112.38,288.64 157.32,436.75 21.63,71.28 128.48,379.27 230.44,352.48 3.35,-19.44 -101.93,-144.31 -70.45,-187.63 19,-0.88 137.14,160.14 218.74,130.82 5.76,-16.16 -16.55,-47.33 -24.53,-71.37 -63.16,-101.34 -101.44,-178.64 -132.22,-295.28 -42.9,-162.59 37.21,-48.39 74.24,12.65 84.13,138.66 327.14,367.97 482.3,186.16 38.84,-45.51 143.64,-193.36 161.2,-245.94 31.93,-95.67 -0.59,-254.66 -9.93,-358.14 -25.76,-285.22 -77.76,-378.63 -216.59,-619.04 -85.02,-147.22 -217.52,-388.48 -332.35,-504.87 -187.05,-189.56 -507.52,-386.54 -506.29,-745.14 0.47,-139.17 97.76,-241.81 94.3,-281.9 -5.21,-60.42 -181.92,-106.3 -235.28,-127.73 -124.23,-49.9 -161.8,-85.94 -237.86,-193.24 -381.43,-148.51 -585.2,-193.54 -993.35,-99.56 -327.61,75.43 -571.22,188.27 -840.13,389.11 -264.93,197.86 -396.18,385.56 -558.95,668.97 -157.29,273.85 -308.04,583.07 -324.29,902.57 -2.25,44.2 -11.08,459.8 21.86,463.09 11.88,1.19 29.93,-10.31 34.23,4.82 16.15,56.78 13.8,177.23 13,237.58 -10.34,775.14 0.36,832.6 -309.37,1509.34 -95.27,208.16 13.96,41.26 61.23,-31.36 84.04,-129.07 155.3,-247.45 224.6,-385.31 0.84,-1.68 54.87,-105.17 50.28,-72.07 -5.62,40.61 -50.17,133.59 -68.28,172.48z"/>
   <path class="fil2" d="M364.07 4930.82c49.34,-14.35 153.24,-25.45 210.61,-34.87 139.62,-22.94 87.17,15.02 178.82,43.15 73,-28.55 350.96,-32.6 420.54,0.41 14.72,39.65 14.56,185.02 1.47,225.08 -35.61,8.57 -34.49,-1.07 -71.46,-10.53 -134.52,-14.08 -158.33,-40.52 -274.23,-39.97 -84.93,0.39 -187.83,-53.35 -280.35,-69.58 -149.29,-26.18 -89.33,-48.83 -176.94,-49.22 17.79,0.15 1.7,-2.89 8.47,9.23 162.82,41.35 281.93,100.81 364.53,124.69 158.61,45.87 246.96,-6.01 584.79,151.99l234.97 129.06c28.11,15.62 64.39,21.18 95.34,32.87 54.71,20.66 113.95,55.67 168.91,80.46 30.54,-27.84 92.73,-14.29 134.07,-19.62 44.01,-5.67 32.97,-16.49 58.22,-26.94 76.13,-31.5 288.42,-12.7 364.85,-67.8l-23.56 -30.47 -776.37 -357.28c-105.06,-40.46 -209.48,-94.22 -312.9,-140.22 -43.97,-19.56 -116.49,-49.34 -155.26,-73.88 -48.55,-30.73 -43.17,-118.93 -20.71,-160.27 39.79,-21.14 754.16,-99.87 877.14,-122.46 56.06,-71.03 92.15,-217.68 131.43,-300.16 25.82,-54.22 111.74,-269.78 108.11,-319 6.02,-54.85 23.02,-104.4 26.97,-155.19 4.31,-55.25 -0.12,-120.46 0.6,-177.37 1.48,-116.72 6.08,-217.97 16.32,-334.1 11.73,-133.09 10.28,-178.59 -40.51,-300.34 -32.88,-78.82 -4.75,-239.73 -49.08,-295.09 -12.13,-8.62 -479.76,57.13 -357.91,-58.64 -82.02,16.39 -30.97,57.22 -122.3,-6.1 -29.79,-20.66 -81.63,-47.81 -92.74,-81.58l-47.81 -35.62c-55.42,-16.83 -109.04,-89.13 -148.12,-130.41 -45.76,-23.8 -169.72,-174.21 -192.03,-223.6l-118.63 -219.38c-279.66,362.47 -509.62,856.28 -630.69,1296.83 -168.84,614.39 -172.08,1118.2 -94.56,1745.92z"/>
   <path class="fil3" d="M5815.7 3652.87c6.99,-54.06 30.64,11.69 58.65,40.57 21.31,21.97 103.05,71.83 16.79,78.68 -67.57,5.37 -112.96,-32.26 -168.63,-59.12 -65.41,-31.57 12.03,46.32 24.44,56.42 127.64,103.84 -64.75,81.93 -169.07,-8.31 -96.47,-83.44 -135.37,-191.75 -166.77,-311.6 -29.13,-111.15 -206.02,-594 -269.52,-666.98 -92.79,-106.64 18.5,201.42 22.97,221.74 14.42,65.41 31.87,132.75 40.83,198.94 10.2,75.24 10.05,140.62 23.66,219.05 -8.69,-262 52.98,-31.99 103.01,75.16 122.71,262.76 50.59,139.03 124,342.14 50.1,138.61 43.92,295.13 67.74,441.15 20.49,125.62 73.6,261.12 118.13,380.62 35.75,95.96 32.21,72.84 -28.48,106.14 -46.9,25.73 8.87,110.74 16.84,158.61 17.3,103.85 6.8,346.51 -43.9,440.42 -55.01,101.91 -118.45,-265.93 -138.98,-179.03 -7.29,30.86 32.16,144.95 39.7,186.7 15.47,85.62 22.54,106.93 11.21,193.49 147.39,160.84 215.92,-71.7 234.44,-194.51 13.78,-91.35 23.92,-183.85 18.81,-276.41 -2.79,-50.5 -54.73,-219.12 -28.27,-249.66 41.36,14.02 63.4,188 68.08,231.26 8.44,77.91 -5.35,189.98 -20.62,267.42 39.6,-31.03 22.9,-127.94 25.82,-178.78l15.19 -4.44c127.27,-22.74 196.21,-15.54 319.69,-22.77 294.55,-17.26 336.87,90.86 627.24,85.41 131.52,-2.47 117.63,-145.13 115.73,-238.37 -2.39,-117.86 -16.28,-224.33 -29.89,-340.64 -14.21,-121.34 -15.64,-205.45 -20.51,-325.12 -9.93,-243.63 -112.09,-173.72 -87.86,-598.68 12.41,-217.51 -7.16,-480.47 -15.6,-701.69 -8.34,-218.76 -34.1,-419.1 -105.93,-626.89 -52.8,-152.76 -171.15,-330.87 -258.77,-469.25 -47.15,-74.46 -93.43,-149.39 -140.13,-224.14 -65.45,-104.73 -80,-125.09 -59.14,-247.89 -29.42,-53.55 -47.85,-78.58 -70.47,-139.96 -15.66,-42.5 -33.87,-102.35 -69.49,-130.5l15.79 67.15c-29.49,-7.58 -146.64,-229.61 -171.37,-269.88 -63.95,-104.12 -128.03,-167.58 -228.31,-236.85 -374.24,-258.53 -546.8,-208.79 -675.53,-262.07 76.06,107.3 113.63,143.34 237.86,193.24 53.36,21.43 230.07,67.31 235.28,127.73 3.46,40.09 -93.83,142.73 -94.3,281.9 -1.23,358.6 319.24,555.58 506.29,745.14 114.83,116.39 247.33,357.65 332.35,504.87 138.83,240.41 190.83,333.82 216.59,619.04 9.34,103.48 41.86,262.47 9.93,358.14 -17.56,52.58 -122.36,200.43 -161.2,245.94 -155.16,181.81 -398.17,-47.5 -482.3,-186.16 -37.03,-61.04 -117.14,-175.24 -74.24,-12.65 30.78,116.64 69.06,193.94 132.22,295.28z"/>
   <path class="fil4" d="M3545.69 4315.04c38.38,-26.54 76.73,0.96 131.51,-9.28 63.92,-11.94 52.77,-48.31 109.21,-31.71 34.1,104.9 -248.44,160.14 -240.72,40.99zm-232.68 -159.42c9.35,-12.11 159.33,-22.34 183.67,-21.98 219.55,3.22 74.83,5.18 189.98,-20.85 62.25,-14.07 148.25,-16.21 205.27,-35.1 46.91,-15.55 115.27,-69.77 163.23,-48.05 25.63,80.25 -286.54,98.38 -338.42,119.33 -127.48,51.48 -80.26,17.71 -197.26,23.71 -43.73,2.25 -179.86,16.1 -206.47,-17.06zm282.32 -156.85c-19.32,-30.04 -13.25,-94.86 10.08,-121.1 50.83,-9.04 86,151.87 -10.08,121.1zm180.72 -245.67c-0.13,-28.38 46.31,-51.12 70.3,-47.62 0.13,28.08 -41.74,56.25 -70.3,47.62zm853.88 -380.85c-20.24,57.28 -164.95,163.01 -228.29,180.12 -61.35,16.57 -291.94,-28.9 -258.56,-111.3l486.85 -68.82zm-1029.31 -379.76c-1.84,41.95 14.79,81.27 15.68,131.49 0.82,46.24 1.44,101.79 -7.39,146.79 -11.34,57.77 -34.19,206.5 -56.71,250.98 -16.27,44.04 -83.82,147.79 -79.85,176.69 6.5,47.24 113.24,91.95 120.38,132.36 -23.44,3.02 -98.95,-44.86 -122.49,-62.1 -59.16,-43.33 -40.98,-63.53 -41.2,-120.77l12.21 -36.72c-88.26,-27.21 -280.51,43.96 -360.95,88.07 -215.76,118.34 -152.85,110.53 -95.26,254.28 45.34,109.1 175.67,272.91 250.19,371.6 97.1,128.61 183.13,224.88 295.3,339.87 353.96,362.86 479.74,135.05 839.86,-11.64 85.43,-56.81 1.72,46.45 213.39,-86.45 64.11,-40.26 321.44,-216.45 366.48,-260.07 55.14,-53.4 87.81,-115.14 162.94,-158.16l47.12 -313.42 -30 -284.81c-16.98,-94.19 -37.79,-184.92 -60.52,-278.17 -46.97,-192.73 -33.21,-283.38 -132.43,-377.95 -18,-17.16 -61.08,-71.64 -83.73,-71.07l-14.62 97.67 -2.33 0c-49.49,96.68 -175.58,226.68 -268.04,284.37 -192.02,119.81 -92.21,98.21 -309.9,86.38 -28.44,-1.55 -103.02,6.14 -117.41,1.17 -12.32,-35.87 17.12,-27.58 -9.04,-83.22 -57.4,-122.05 7.86,-130.42 -48.89,-180.76 -14.06,-12.47 6.54,-56.79 10.7,-82.15 2.27,-41.08 -55.03,-114.87 9.05,-161.46l19.51 -43.51 21.22 -77.89c-43.65,-0.07 -74.49,38.44 -128.79,-0.04 -8.08,-61.65 56.93,-61.65 108,-73.01 29.03,-6.48 65.82,-29.06 92.46,-43.45 29.92,-16.17 71.46,-20.16 109.43,-33.57 45.07,-15.91 217.7,-49.78 232.76,-57.82 -24.21,-75.84 -68.03,-125.22 -102.57,-196.03 -16.57,-33.98 -67.88,-182.85 -107.24,-179.74 -36.24,2.87 -297.69,220.05 -341.49,258.03 -73.73,63.93 -384.09,386.12 -443.49,471.94 -54.87,79.26 64.45,69.88 37.66,182.29z"/>
   <path class="fil5" d="M5263.37 492.39c100.27,38.06 154.48,53.27 251.79,105.63 55.51,29.86 164.59,107.6 215.26,148.14 102.85,82.3 267.5,308.41 286.22,435.89 35.62,28.15 53.83,88 69.49,130.5 22.62,61.38 41.05,86.41 70.47,139.96 14.09,133.98 35.26,138.87 108.09,241.11 48.33,67.85 92.68,145.85 140.38,216.08 24.03,35.37 53.29,64.95 75.21,101.39 21.69,36.03 40.35,80.09 61.17,118.11 157.91,288.39 216.2,480.43 233.76,827.11 6.36,125.66 3.37,582.63 40.49,670.26 40.28,27.23 9.62,65.8 23.46,118.29 53.51,39.48 46.95,-6.38 86.51,75.84 26.03,45.93 7.71,35.76 9.63,80.17 29.63,22.49 277.26,91.12 310.71,84.06 19.84,-50.49 -3.96,-112.36 12.4,-161.62l4.97 -33.48c20.58,-104.37 92.13,-258.36 140.98,-355.24 50.2,-99.56 35.04,-100.06 38.25,-208.97 2.03,-69.07 22.74,-134.68 42.23,-200.22 16.55,-64.23 70.26,-151.55 118.42,-197.35 26.09,-24.82 58.67,-44.52 90.71,-60.66 60.04,-30.26 41.21,-11.23 75.46,-62.39l73.48 -410.53c-548.18,-991.7 -1500.1,-1687.77 -2599.01,-1947.33 4.29,33.38 6.95,43.78 15.24,75.37 7.52,28.63 0.84,36.8 4.23,69.88z"/>
   <path class="fil4" d="M4635.1 5902.78c15.28,-79.96 72.67,-175.81 110.32,-250.31 20.22,-40.03 41.85,-79.19 58,-120.84 22.91,-59.06 -2.99,-70.91 20.81,-141.03 69.92,-16.14 9.75,-10.8 96.87,-25.79l9.87 -5.15c29.31,91.05 -248.21,626.14 -326.08,609.12 -7.68,-28.05 16.9,-33.07 30.21,-66zm-643.23 -746.62c-64.33,22.75 -123.94,80.27 -208.5,109.34 -35.25,12.12 -199.14,77.09 -218.95,93.57 -34.16,38.12 -33.11,59.61 -35.29,110.32 -3.22,74.89 7.99,57.69 22.64,113.74 17.45,66.76 13.04,195.65 11.98,267.34 -2.59,174.52 -19.98,374.25 17.6,544.55 3.96,26.74 98.5,117.43 125.9,124.35 60.7,38.86 56.54,8.18 109.53,-26.41 50.49,-32.97 64.42,-51.53 126.12,-48.31 94.17,96.32 -248.98,167.83 272.48,196.55 200.35,11.03 401.31,9.96 601.82,3.88 92.78,-2.81 178.26,-20.04 269.31,-34.42 230.43,-36.41 69.45,-31.39 282.88,-327.42 43.52,-60.35 71.37,-127.57 115.52,-184.83l-8.3 -28.25c-79.92,-0.71 -149.68,12.98 -227.99,25.8l-741.07 264.78c-39.31,15.01 -86.56,27.48 -122.14,48.78 -24.32,14.57 -63.77,58.03 -86.74,51.85 -27.31,-102.98 436.54,-223.72 508.99,-257.92 27.01,-39.08 127.35,-79.97 173.48,-102.1 43.14,-20.69 30.91,-37.2 75.4,-61.1 92.13,-49.48 418.31,-146.42 531.41,-123.42 0.96,-6.85 132.27,-217.55 147.66,-240.02 30.96,-45.16 35.28,-79.04 66.92,-128.37 77.82,-121.34 3.4,-73.14 56.44,-123.53l2.26 -27.11 -70.23 -35.87c-29.4,34.06 -0.94,54.19 -38.57,99.03 -16.37,95.26 -42.9,134.23 -113.7,195.65 -262.1,97.73 -376.99,-95.61 -454.07,-317.48 -35.8,-103.06 -80.78,-209.23 -96.02,-317.65 -19.63,-139.74 -32.09,-198.85 -86.98,-329.39 -54.25,-129.02 -156.45,-26.64 -227.99,30.95 -225.02,181.17 -225.57,245.43 -489.9,338.3 -46.21,16.24 -111.95,45.32 -158.41,51.31 -61.09,7.88 -84.97,-5.96 -133.49,43.51z"/>
   <path class="fil6" d="M7164.65 5528.69c25.08,24.81 79.92,135.46 95.84,171.61 20.34,46.14 8.84,66.34 29.29,116.48 17.77,43.54 24.21,69 17.14,116.85 -26.91,30.57 -211.32,136.52 -254.15,153.03 -173.17,105.79 -446.79,201.71 -643.67,255.73 -151.46,41.56 -590.2,172.45 -724.66,160.05 -33.78,27.74 -84.35,38.6 -124.71,21.13 -9.04,-32.91 118.84,-235.76 158.11,-340.62 104.33,-278.58 137.95,-210.02 260.07,-244.54 47.28,-9.03 110.89,-5.73 149.38,-39.44l-45.13 -7.78c-31.98,13.01 -241.58,76.25 -190.04,-15.04 89.43,-158.42 289.65,-401.75 400,-549.53 78.56,-105.22 72.13,-109.96 206.08,-90.25 91.37,13.45 181.86,23.91 273.19,39.68 234.69,40.51 294.17,16.74 393.26,252.64zm-1281.59 284.45c-11.42,47.25 -49.87,81.59 -80.19,116.58 -22.12,25.51 -52.51,95.3 -67.68,128.33 -40.06,87.24 -86.75,168.44 -125.96,258.12 -18.53,46 -71.7,175.39 -96.1,211.92 -22.94,34.35 -206.85,57.59 -245.17,47.12 -3.2,-28.41 0.3,-27.48 14.44,-52.78 51.4,-108.18 197.18,-333.47 233.19,-413.31 96.23,-213.37 87.87,-151.59 160.84,-272.01l159.21 -263.78c28.76,-54.23 31.43,-83.42 74.97,-132.14 43.66,-69.48 101.4,-141.78 141.05,-211.41 35.41,-62.19 47.43,-52.98 120.35,-55.45 216.02,-7.31 198.21,-11.57 -60.14,327.95l-228.81 310.86zm-2885.81 -2866.98l16.92 -30.12c42.12,-35 91.7,-29.02 147.39,-32.45 55.14,-3.4 79.44,32.02 84.31,83.87 28.18,43.53 25.38,73.36 18.55,123.68 1.42,61.06 -21.7,181.67 -67.43,224.39 -64.63,16.6 -128.8,-18.16 -180.84,-54.5 -44.65,-35.96 -70.55,-96.18 -71.55,-153.36 -1.62,-92.6 -16.56,-100.51 52.65,-161.51zm2814.52 2216.38l194.98 32.39c4.72,38.09 -43,87.72 -66.66,118.62 -24.25,31.66 -53.79,88.86 -81.12,111.36 -53.04,50.39 21.38,2.19 -56.44,123.53 -31.64,49.33 -35.96,83.21 -66.92,128.37 -15.39,22.47 -146.7,233.17 -147.66,240.02 -62.35,40.49 -56.42,130.72 -103.04,181.58 -44.15,57.26 -72,124.48 -115.52,184.83 -213.43,296.03 -52.45,291.01 -282.88,327.42 -91.05,14.38 -176.53,31.61 -269.31,34.42 -200.51,6.08 -401.47,7.15 -601.82,-3.88 -521.46,-28.72 -178.31,-100.23 -272.48,-196.55l-83.12 137.32c-55.96,7.47 -121.06,-13.43 -152.53,-62.6 -27.4,-6.92 -121.94,-97.61 -125.9,-124.35 -56.02,-35.26 -135.24,-127.31 -133.13,-196.46 10.04,-329.48 11.51,-279.19 46.95,-588.14 5.57,-48.61 11.55,-97.1 17.12,-145.68 6.96,-60.61 -7.8,-88.22 52.13,-105.67 19.81,-16.48 183.7,-81.45 218.95,-93.57 84.56,-29.07 144.17,-86.59 208.5,-109.34 60.94,-100.26 35.31,-164.85 29.95,-277.37 35.23,-48.83 315.98,-148.92 376.35,-223.24l-27.78 -2.16c-360.12,146.69 -485.9,374.5 -839.86,11.64 -112.17,-114.99 -198.2,-211.26 -295.3,-339.87 -74.52,-98.69 -204.85,-262.5 -250.19,-371.6 -45.3,-48.05 -68.35,-111.75 -94.34,-171.79 -45.66,-105.5 -23.61,-110.12 -26.55,-217.41 -2.15,-78.66 -83.89,-384.56 4.44,-419.12 47.81,22.84 97.81,168.65 221.91,200.16 54.92,13.94 137.99,21.91 193.87,15.27 29.06,-3.45 121.96,-37.14 136.51,-59.82 -73.47,-4.93 -122.55,31.44 -180.42,16.11l53.03 -65.58 18.58 -78.25c7.77,-41.72 9.57,-99.62 5.91,-142.05 -4.21,-48.77 -32.03,-65.19 -29.36,-97.94 31.99,-2.59 125.92,80.65 149.09,110.29 -1.58,-67.43 -23.24,-87.52 -75.98,-131.84 -74.5,-62.61 -105.27,-48.05 -189.18,-69.76 -77.31,-20 3.37,-77.55 36.42,-98.36 42.11,-26.51 161.17,-32.02 164.39,-50.42 13.09,-74.8 -99.65,-25.17 219.13,-200.95 107.06,-59.03 219.07,-126.03 316.62,-199.64 77.77,-58.69 357.35,-288.88 424,-363.86 21.47,-24.16 68.86,-109.19 98.66,-57.4 22.23,38.64 46.07,133.81 70.76,186.34 161.6,343.8 316.93,339.08 55.22,398.46 -15.06,8.04 -187.69,41.91 -232.76,57.82 -37.97,13.41 -79.51,17.4 -109.43,33.57 -26.64,14.39 -63.43,36.97 -92.46,43.45 -42.86,43.98 -85.79,8.53 -94.2,64.59 66.3,45.06 158.77,-51.71 209.67,-75.57 76.23,-35.72 161.22,-59.36 244.68,-68.83l87.23 -18.35c31.66,-20.13 59.95,-12.29 99.35,-16.74 39.47,-4.45 56.89,-15.31 86.18,-20.33 25.42,19.27 61.95,64.5 89.29,90.45 154.97,147.11 164.91,78.83 228.87,311.98 20.48,65.48 41,145.08 57.3,212.46 19.14,79.14 17.24,177.53 32.04,242.47 17.31,75.93 28.73,464.29 -3.19,522.32l-47.12 313.42c-9.28,173.01 -30.34,329.38 -15.01,506.29 25.19,290.74 73.88,539.24 245.52,787.71 67.64,97.94 161.48,236.68 295.02,213.9 70.8,-61.42 97.33,-100.39 113.7,-195.65l18.33 -115.2c15.27,-77.44 29.06,-189.51 20.62,-267.42 -4.68,-43.26 -26.72,-217.24 -68.08,-231.26 -26.46,30.54 25.48,199.16 28.27,249.66 5.11,92.56 -5.03,185.06 -18.81,276.41 -18.52,122.81 -87.05,355.35 -234.44,194.51 -127.62,-148.8 -176.8,-220.76 -242.98,-408.23 -115.53,-327.26 -68.65,-372.52 -116.13,-544.75 -34.77,-126.1 26.82,-452.64 49.93,-593.01 35.28,-214.18 53.38,-380.36 39.91,-599.41 -13.61,-78.43 -13.46,-143.81 -23.66,-219.05 -8.96,-66.19 -26.41,-133.53 -40.83,-198.94 -4.47,-20.32 -115.76,-328.38 -22.97,-221.74 63.5,72.98 240.39,555.83 269.52,666.98 31.4,119.85 70.3,228.16 166.77,311.6 104.32,90.24 296.71,112.15 169.07,8.31 -12.41,-10.1 -89.85,-87.99 -24.44,-56.42 55.67,26.86 101.06,64.49 168.63,59.12 86.26,-6.85 4.52,-56.71 -16.79,-78.68 -28.01,-28.88 -51.66,-94.63 -58.65,-40.57 7.98,24.04 30.29,55.21 24.53,71.37 -81.6,29.32 -199.74,-131.7 -218.74,-130.82 -31.48,43.32 73.8,168.19 70.45,187.63 -101.96,26.79 -208.81,-281.2 -230.44,-352.48 -44.94,-148.11 -107.84,-289.42 -157.32,-436.75 -21.75,-25.85 -81.76,-147.72 -76.53,-180.43l49.09 10.64c-6.25,-39 -104.63,-89.14 -127.68,-114.89 -253.61,-188.2 -306.39,-197.07 -504.49,-501.06 -50.45,-77.43 -150.05,-254.92 -170.54,-340.58 -25.71,-107.43 -18.68,-89.38 35.6,-176.22 19,-30.39 82.61,-114.93 44.5,-142.05 -136.94,182.35 -203.5,308.44 -387.8,460.19 -152.59,125.64 -297,268.3 -473.03,362.44 -127.71,71.52 -322.93,180.57 -431.31,273.56 -76.96,66.03 -310.98,285.82 -351.83,366.01 -14.1,27.69 2.58,91.78 -21.09,84.55 -40.22,-12.28 -22.88,-27.1 -61.63,29.56 -178.57,261.15 -169.74,581.45 -98.17,881.18 37.11,57.28 83.9,92.75 59.41,-8.44 -42.1,-174.03 -64.42,-387.41 -39.18,-567.99 18.06,-129.18 46.4,-39.92 51.16,32.12 13.73,207.85 21.61,312.81 118.05,502.49 66.1,130 153.74,253.2 241.84,369.16 137.96,181.59 427.99,526.6 655.67,572.06 87.44,17.46 182.36,33.28 157.2,154.97 -20.26,97.96 -84.79,109.69 -163.26,147.34 -49.36,23.68 -157.77,90.06 -204.14,96.63 -72.27,10.24 -114.29,-13.26 -117.51,98.63l-28.95 210.44c-18.97,133.48 -21.58,346.04 -39.48,413.27 -12.53,47.04 9.68,94.73 -18.02,130.64 -41.59,-13.34 -65.78,-103.77 -81.24,-144.75 -43.32,-54.14 -52.64,-176.7 -52.62,-245.5 0.02,-57.69 -7.22,-224.37 4.74,-268.08l-12.14 14.05c-1.98,46.49 8.61,177.41 -10.25,209.04 -22.11,-30.54 -27.46,-94.08 -32.8,-131.9 -5.38,-38.03 -33.88,-94.91 -1.29,-124.91 26.72,-19.18 35.38,-25.23 70.06,-13.15l-2.59 -48.37c-47.09,13.88 -24.81,5.49 -61.27,-31.19 -13.51,-13.58 -48.98,-55.17 -57.58,-62.18l-42.52 33.32c-130.27,30.99 -308.39,115.08 -430.77,175.48 -66.5,32.83 -138.57,102.02 -177.74,19.12 -89.05,-188.48 -153.78,-556.97 -161.1,-761.87 -2.4,-67.2 7.93,-543.08 -21.91,-560.48 -21.78,24.52 -4.2,205.83 -28.33,319.85 -26.26,130.84 32.9,357.74 8.73,451.15 27.69,33.66 34.02,158.43 43.93,209.85 13.23,68.65 32.05,136.14 48.56,204.08l87.61 217.42c-16.2,21.41 -221.49,131.34 -264.4,158.3 -42.04,26.41 -87.04,55.58 -129.61,80.49 -138.92,81.28 -55.14,53.63 -110.97,108.65l-20.46 38.45c-16.23,54.38 -44.57,86.11 -57.62,131.52 -24.93,86.74 -18.53,61.56 -2.61,138.77 -12.23,179.35 -56.55,351.39 -92.35,525.71 -17.27,84.08 -35.81,166.51 -53.59,249.89 -16.86,79.05 -50.96,183.1 -60.13,257.93l20.74 16.93c91.67,-287.3 176.47,-644.81 206.55,-944.11 40.09,-399.02 143.66,-477 484.76,-665.48 123.69,-68.34 253.44,-134.31 381.12,-194.88 98.59,-46.77 271.88,-154.93 352.77,-36.83 97.04,141.7 26,487.12 307.46,843.69 240.73,304.98 407.7,339 787.37,363.41 810.42,52.11 2152.74,-195.26 2857.25,-585.16 38.08,-26.03 204.14,-133.12 238.76,-132.74 79.01,51.26 213.4,586.08 282.32,600.99 40.53,-27.2 -14.32,-112.4 -25.58,-150.39 -15.04,-49.69 -47.04,-87.74 -45.49,-138.38 -24.6,-18.59 -51.29,-86.78 -63.07,-118.75 -39.72,-68.38 -95.97,-176.37 -97.98,-253.49 -44.18,-33.01 -36.76,-0.64 -39.01,-69.14 -5.1,-155.56 -164.25,-359.47 -236.08,-486.44 -15.45,-49.6 -1.38,-62.65 -69.48,-78.27 -36.18,-8.31 -82.37,-19.52 -118.73,-21.33 -38.74,-15.84 -28.15,-37.22 -23.33,-82.52 3.03,-28.55 7.96,-56.37 10.16,-85.13 11.95,-155.7 -6.18,-229.89 -13.57,-373.19 -1.42,-27.55 7.48,-59.83 4.38,-70.97 -7.26,-26.07 -18.46,-14.46 -26.91,-67.7 -8.43,-49.79 -30.32,-108.66 -17.68,-157.91 20.09,1.21 105.46,147.02 283.42,186.36l3.68 -27.77c-86.96,-35.12 -232.4,-227.2 -260.28,-321.33 -23.97,-28.15 -23.75,-41.81 -29.02,-77.67 -25.79,-20.9 -36.51,-72.28 -35.76,-105.44 -54.77,-63.29 -43.61,-144.01 -35.24,-221.15 4.24,-39.12 -2.21,-105.02 3.4,-133.61 11.52,-58.68 47.76,-0.41 28.97,-91.76 -37.12,-87.63 -34.13,-544.6 -40.49,-670.26 -17.56,-346.68 -75.85,-538.72 -233.76,-827.11 -20.82,-38.02 -39.48,-82.08 -61.17,-118.11 -21.92,-36.44 -51.18,-66.02 -75.21,-101.39 -47.7,-70.23 -92.05,-148.23 -140.38,-216.08 -72.83,-102.24 -94,-107.13 -108.09,-241.11 -20.86,122.8 -6.31,143.16 59.14,247.89 46.7,74.75 92.98,149.68 140.13,224.14 87.62,138.38 205.97,316.49 258.77,469.25 71.83,207.79 97.59,408.13 105.93,626.89 8.44,221.22 28.01,484.18 15.6,701.69 -24.23,424.96 77.93,355.05 87.86,598.68 4.87,119.67 6.3,203.78 20.51,325.12 13.61,116.31 27.5,222.78 29.89,340.64 1.9,93.24 15.79,235.9 -115.73,238.37 -290.37,5.45 -332.69,-102.67 -627.24,-85.41 -123.48,7.23 -192.42,0.03 -319.69,22.77z"/>
   <path class="fil7" d="M685.8 5957.71c113.82,45.04 233.68,28.37 353.59,47.37 61.55,9.76 101.95,33.57 162.55,40.25 44.3,4.89 151.62,6.2 182.24,25.69l68.39 24.37c39.81,8.36 75.43,12.75 112.41,-2.35 1.6,-52.66 -65.63,-50.85 -113.18,-74.43 50.29,-23.31 360.42,72.91 460.66,60.11 28.84,-36.48 10.52,-50.44 53.64,-75.81l20.46 -38.45c-78.44,-72.74 -152.46,-47.97 -311.7,-77.32 -54.75,-10.09 -110.33,-19.04 -164.72,-29.43l-307.28 -91.46c-16.3,-6.84 -110.07,-64.98 -51.58,-60.64 17.34,1.29 117.75,34.8 146.9,42.32 39.05,10.08 43.55,27.99 77.86,36.91 229.9,59.76 489.15,40.12 719.91,2.12 195.03,-32.12 92.16,-60.43 -12.02,-122.62 -81.44,-48.62 -182.83,-89.37 -254.39,-140.75 -54.96,-24.79 -114.2,-59.8 -168.91,-80.46 -30.95,-11.69 -67.23,-17.25 -95.34,-32.87l-234.97 -129.06c-337.83,-158 -426.18,-106.12 -584.79,-151.99 -82.6,-23.88 -201.71,-83.34 -364.53,-124.69 16.48,167.81 208.86,825.51 304.8,953.19z"/>
   <path class="fil3" d="M2729.27 4004.72c32.49,79.96 53.04,73.94 56.66,169.26 4.98,131.16 71.78,426.18 109.02,544.19 27.26,86.37 143.48,383 189.81,461.11 37.83,63.78 59.01,87.38 37.8,163.14l42.52 -33.32c8.6,7.01 44.07,48.6 57.58,62.18 36.46,36.68 14.18,45.07 61.27,31.19l2.59 48.37c-34.68,-12.08 -43.34,-6.03 -70.06,13.15l39.96 -2.61 4.38 50.38 12.14 -14.05c-11.96,43.71 -4.72,210.39 -4.74,268.08 -0.02,68.8 9.3,191.36 52.62,245.5 -4.51,-49.09 -18.91,-94.27 -30.56,-141.78 -21.16,-86.37 -0.19,-400.51 16.72,-480.25 33.13,-10.44 32.75,-0.44 65.57,-19.01 31.38,-17.75 23.43,-17.52 62.59,-26.71 15.39,-26.98 26.3,-22.71 51.76,-17.6l1.61 75.75c3.22,-111.89 45.24,-88.39 117.51,-98.63 46.37,-6.57 154.78,-72.95 204.14,-96.63 78.47,-37.65 143,-49.38 163.26,-147.34 25.16,-121.69 -69.76,-137.51 -157.2,-154.97 -227.68,-45.46 -517.71,-390.47 -655.67,-572.06 -88.1,-115.96 -175.74,-239.16 -241.84,-369.16 -96.44,-189.68 -104.32,-294.64 -118.05,-502.49 -4.76,-72.04 -33.1,-161.3 -51.16,-32.12 -25.24,180.58 -2.92,393.96 39.18,567.99 24.49,101.19 -22.3,65.72 -59.41,8.44z"/>
   <path class="fil8" d="M7724.55 4143.03c2.06,-17.64 39.4,-93.24 51.94,-100.38 22.98,-13.09 118.23,-8.61 143.45,0.59 14.73,93.1 -125.3,123.72 -195.39,99.79zm227.65 -323.75c93.03,-43.59 143.6,82.01 62.16,131.06 -88.7,53.42 -151.67,-89.13 -62.16,-131.06zm-182.77 -1114.28l-55.15 285.9c0.47,55.81 -27.33,176.13 -48.83,229.06 -35.17,86.63 -56.29,480.07 -128,646.63l-0.79 -64.81c-70.47,88.63 -147.5,57.81 -159.67,-49.62l-75.46 41.69 -18.32 -27.77 -19.83 23.75 -4.97 33.48c-6.23,154.52 -11.43,222.28 67.73,356.96 21.63,36.79 57.54,97.04 94.43,116.98 5.41,2.93 148.03,58.73 151.81,59.32 134.46,18.02 150.09,45.02 294.82,12.18 155.12,-35.21 301.95,-173.77 355.81,-317.92 9.99,-26.73 56.53,-226.61 9.4,-207.93 -22.97,9.11 -127.44,-100.44 -172.75,-125 -116.64,-63.23 -152.45,-2.86 -140.83,-158.39 15.74,-210.7 65.71,-153.04 73.83,-267.73 8.51,-120.34 -51.37,-125.8 0.45,-291.18 -3.44,-53.52 20.09,-273.65 41.75,-316.62l-42.38 -101.65c-9.26,69.53 -74.4,509.05 -104.46,533.56 -49.07,-3.37 -17.24,-102.79 -13.05,-135.77l70.29 -490.92 -9.31 -16.93c-4.29,74.08 -83.86,611.21 -114.29,636.26 -35.88,-31.93 70.34,-611.48 72.98,-704 -1.66,-33.59 -33.45,-80.77 -51.73,-110.06l-73.48 410.53z"/>
   <path class="fil2" d="M1888.07 1079.87c17.85,5.39 79.05,36.95 90.66,49.14 49.35,51.79 4.67,55.12 9.66,84.08 37.02,-24.35 63.14,49.79 85.11,82.85 26.3,39.56 47.08,82.13 70.72,123.49 31.86,55.71 159.13,190.96 167.22,214.78l56.37 39.97 37.27 -48.54c89.82,-165.16 172.29,-316.93 279,-473.18 53.71,-78.64 101.71,-144.99 165.97,-215.88 151.59,-167.24 89.56,-89.73 194.98,-155.2 156.88,-97.44 214.41,-184.29 461.87,-297.96 195.87,-89.98 370.98,-122.94 568.68,-191.63 32.91,-41.97 201.95,-29.65 259.58,-29 43.82,0.49 76.84,-3.44 119.37,5.26 43.89,8.98 59.83,21.06 91.56,-14.05 -479.33,-50.77 -1062.56,57.44 -1519.36,207.34 -336.35,110.37 -881.44,377.43 -1138.66,618.53z"/>
   <path class="fil4" d="M6146.84 5672.65c-13.43,54.45 -146.88,201.13 -152.8,226.85l88.12 -8.31 45.13 7.78c-38.49,33.71 -102.1,30.41 -149.38,39.44 -40.2,55.35 -366.44,553.68 -363.89,575.61l70.42 -11.58c134.46,12.4 573.2,-118.49 724.66,-160.05 196.88,-54.02 470.5,-149.94 643.67,-255.73 62.65,-54.37 -7.27,-72.66 -155.83,-199.42 -72.07,-61.49 -153.6,-125.93 -228.44,-185.03 -148,-116.86 -96.42,-86.14 -280.99,-136.25 -256.24,-69.56 -100.5,-7.29 -240.67,106.69z"/>
   <path class="fil1" d="M5229.05 3422.26c13.47,219.05 -4.63,385.23 -39.91,599.41 -23.11,140.37 -84.7,466.91 -49.93,593.01 47.48,172.23 0.6,217.49 116.13,544.75 66.18,187.47 115.36,259.43 242.98,408.23 11.33,-86.56 4.26,-107.87 -11.21,-193.49 -7.54,-41.75 -46.99,-155.84 -39.7,-186.7 20.53,-86.9 83.97,280.94 138.98,179.03 50.7,-93.91 61.2,-336.57 43.9,-440.42 -7.97,-47.87 -63.74,-132.88 -16.84,-158.61 60.69,-33.3 64.23,-10.18 28.48,-106.14 -44.53,-119.5 -97.64,-255 -118.13,-380.62 -23.82,-146.02 -17.64,-302.54 -67.74,-441.15 -73.41,-203.11 -1.29,-79.38 -124,-342.14 -50.03,-107.15 -111.7,-337.16 -103.01,-75.16z"/>
   <path class="fil1" d="M6925.67 3820.7c5.53,87.04 -14.39,89.56 -29.15,156.78 -5.92,26.94 71.47,62.54 94.93,68.19 67.41,16.26 233.47,37.72 217.94,140.83 -70.66,82.33 -253.76,13.54 -329.79,37.87l3.75 31.83c27.88,94.13 173.32,286.21 260.28,321.33 109.15,26.07 230.09,-4.35 243.06,130.06 7.4,76.68 -7.4,90.78 -15.53,152.91 -3.77,28.86 10.91,23.56 12.84,39.35 1.58,12.9 -14.08,18.76 -13.36,23.68 217.5,3.78 770.67,-117.56 952.09,-124 2.03,-31.94 30.68,-318.35 33.86,-324.98 -182.82,0.05 -306.37,-69.58 -381.8,-61.78 -67.03,6.93 -145.84,-7.53 -219.36,-7.12 -59.14,0.32 -145.97,2.95 -183.05,-49.08 -3.78,-0.59 -146.4,-56.39 -151.81,-59.32 -36.89,-19.94 -72.8,-80.19 -94.43,-116.98 -79.16,-134.68 -73.96,-202.44 -67.73,-356.96 -16.36,49.26 7.44,111.13 -12.4,161.62 -33.45,7.06 -281.08,-61.57 -310.71,-84.06 -1.92,-44.41 16.4,-34.24 -9.63,-80.17z"/>
   <path class="fil8" d="M1083.73 6636.65c80.17,127.16 499.18,615.06 616.07,670.08 9.17,-74.83 43.27,-178.88 60.13,-257.93 17.78,-83.38 36.32,-165.81 53.59,-249.89 35.8,-174.32 80.12,-346.36 92.35,-525.71 -92.76,-9.7 -160.84,-38.5 -245.26,-53.75 -36.76,32.23 2.68,47.24 -47.66,67.45 -22.01,8.84 -57.94,10.24 -87.71,21.91 -20.94,39.08 -32.48,94.7 -77.24,118.1 -44.8,23.41 -212.44,46.29 -255.03,133.53 -30.41,62.3 -44.78,54 -109.24,76.21z"/>
   <path class="fil9" d="M4370.39 4653.39l27.78 2.16c-60.37,74.32 -341.12,174.41 -376.35,223.24 5.36,112.52 30.99,177.11 -29.95,277.37 48.52,-49.47 72.4,-35.63 133.49,-43.51 46.46,-5.99 112.2,-35.07 158.41,-51.31 264.33,-92.87 264.88,-157.13 489.9,-338.3 71.54,-57.59 173.74,-159.97 227.99,-30.95 54.89,130.54 67.35,189.65 86.98,329.39 15.24,108.42 60.22,214.59 96.02,317.65 77.08,221.87 191.97,415.21 454.07,317.48 -133.54,22.78 -227.38,-115.96 -295.02,-213.9 -171.64,-248.47 -220.33,-496.97 -245.52,-787.71 -15.33,-176.91 5.73,-333.28 15.01,-506.29 -75.13,43.02 -107.8,104.76 -162.94,158.16 -45.04,43.62 -302.37,219.81 -366.48,260.07 -211.67,132.9 -127.96,29.64 -213.39,86.45z"/>
   <path class="fil10" d="M6874.21 4576.85c46.77,38.59 163.97,86.03 188.25,90.78 91.3,17.86 150.41,-4.71 156.16,115.67 4.56,95.52 -43.14,92.33 -104.62,154.16 -39.71,39.93 9.69,23.19 -67.16,40.27 -155.92,34.66 -117.86,-7 -112.77,259.99l1346.32 -193.48 42.34 -244.71c-181.42,6.44 -734.59,127.78 -952.09,124 -0.72,-4.92 14.94,-10.78 13.36,-23.68 -1.93,-15.79 -16.61,-10.49 -12.84,-39.35 8.13,-62.13 22.93,-76.23 15.53,-152.91 -12.97,-134.41 -133.91,-103.99 -243.06,-130.06l-3.68 27.77c-177.96,-39.34 -263.33,-185.15 -283.42,-186.36 -12.64,49.25 9.25,108.12 17.68,157.91z"/>
   <path class="fil6" d="M4075.58 291.79c-197.7,68.69 -372.81,101.65 -568.68,191.63 -247.46,113.67 -304.99,200.52 -461.87,297.96 -105.42,65.47 -43.39,-12.04 -194.98,155.2 -64.26,70.89 -112.26,137.24 -165.97,215.88 -106.71,156.25 -189.18,308.02 -279,473.18 -8.54,33.61 -67.66,163.6 -88.1,188.24 -1,14.77 -58.04,159.55 -68.32,189.41 -21.43,62.19 -45.58,138.32 -57.98,203.62 16.38,171.2 5.67,279.51 14.55,440.78 3.87,70.28 6.31,144.1 13.33,213.85 8.41,83.57 46.03,98.66 54.72,179.94 14.68,137.32 -5.88,302.12 -13.87,441.36 -7,121.8 19.3,320.94 -44.85,422.65 3.63,49.22 -82.29,264.78 -108.11,319 -39.28,82.48 -75.37,229.13 -131.43,300.16 -19,61.51 -146.7,325.48 -187.08,367.51 -23.09,21.62 -28.56,15.28 -21.01,45.14l36.71 -12.89c70.85,-57.56 164.29,-202.4 214.11,-282.08 31.14,-49.81 179.15,-283.05 208.94,-307.54l41.36 -94.73c18.11,-38.89 62.66,-131.87 68.28,-172.48 4.59,-33.1 -49.44,70.39 -50.28,72.07 -69.3,137.86 -140.56,256.24 -224.6,385.31 -47.27,72.62 -156.5,239.52 -61.23,31.36 309.73,-676.74 299.03,-734.2 309.37,-1509.34 0.8,-60.35 3.15,-180.8 -13,-237.58 -4.3,-15.13 -22.35,-3.63 -34.23,-4.82 -32.94,-3.29 -24.11,-418.89 -21.86,-463.09 16.25,-319.5 167,-628.72 324.29,-902.57 162.77,-283.41 294.02,-471.11 558.95,-668.97 268.91,-200.84 512.52,-313.68 840.13,-389.11 408.15,-93.98 611.92,-48.95 993.35,99.56 128.73,53.28 301.29,3.54 675.53,262.07 100.28,69.27 164.36,132.73 228.31,236.85 24.73,40.27 141.88,262.3 171.37,269.88l-15.79 -67.15c-18.72,-127.48 -183.37,-353.59 -286.22,-435.89 -50.67,-40.54 -159.75,-118.28 -215.26,-148.14 -97.31,-52.36 -151.52,-67.57 -251.79,-105.63 -41.11,-8.74 -139.12,-22.83 -168.85,-45.98l25 -124.67 -37.66 -8.47 -35.36 136.38c-101.89,30.63 -371.54,-236.07 -970.92,-157.86z"/>
   <path class="fil10" d="M7572.38 4356.57c37.08,52.03 123.91,49.4 183.05,49.08 73.52,-0.41 152.33,14.05 219.36,7.12 75.43,-7.8 198.98,61.83 381.8,61.78 0,-271.73 -2.2,-500.23 -37.61,-770.87 -26.7,-204.06 -80.59,-459.02 -148.65,-653.26 -20.85,-0.11 -91.92,-0.61 -108.34,-2.85 -20.83,-2.85 -25.13,-9.46 -43.34,-7.89 -24.8,2.14 0.97,14.84 -24.74,7.63l-0.8 -46.71c-51.82,165.38 8.06,170.84 -0.45,291.18 -8.12,114.69 -58.09,57.03 -73.83,267.73 -11.62,155.53 24.19,95.16 140.83,158.39 45.31,24.56 149.78,134.11 172.75,125 47.13,-18.68 0.59,181.2 -9.4,207.93 -53.86,144.15 -200.69,282.71 -355.81,317.92 -144.73,32.84 -160.36,5.84 -294.82,-12.18z"/>
   <path class="fil9" d="M3437.71 3043.43l16.19 24.25c25.41,37.5 8.92,93.25 22.24,136.05 11.08,-1.94 101.78,-24 115.22,-27.76 26.84,-58.84 -32.97,-178.72 -9.81,-210.74l19.07 27.26c26.79,-112.41 -92.53,-103.03 -37.66,-182.29 59.4,-85.82 369.76,-408.01 443.49,-471.94 43.8,-37.98 305.25,-255.16 341.49,-258.03 39.36,-3.11 90.67,145.76 107.24,179.74 34.54,70.81 78.36,120.19 102.57,196.03 261.71,-59.38 106.38,-54.66 -55.22,-398.46 -24.69,-52.53 -48.53,-147.7 -70.76,-186.34 -29.8,-51.79 -77.19,33.24 -98.66,57.4 -66.65,74.98 -346.23,305.17 -424,363.86 -97.55,73.61 -209.56,140.61 -316.62,199.64 -318.78,175.78 -206.04,126.15 -219.13,200.95 -3.22,18.4 -122.28,23.91 -164.39,50.42 -33.05,20.81 -113.73,78.36 -36.42,98.36 83.91,21.71 114.68,7.15 189.18,69.76 52.74,44.32 74.4,64.41 75.98,131.84z"/>
   <path class="fil11" d="M7111.69 5355.96c71.83,126.97 230.98,330.88 236.08,486.44 2.25,68.5 -5.17,36.13 39.01,69.14 2.01,77.12 58.26,185.11 97.98,253.49 -37.29,-116.54 32.56,-182.51 68.59,-293.68 58.56,-180.67 47.47,-175.12 -134.58,-188.21 -10.25,-0.74 -143.21,-12.74 -88.64,-46.61 33.54,-20.82 146.12,-17.94 188.39,-17.08 57.73,1.16 108.45,-13 119.85,49.96 12.89,71.22 56.22,25.81 49.78,-17.22 -13.68,-91.34 -268.23,-59.55 -336.44,-55.68 -62.35,3.54 -96.58,-17.6 -17.48,-33.85l517.17 -93.45c166.82,-34.25 153.29,-45.23 310.46,20.96 33.17,-28.01 65.3,-222.23 84.67,-275.27 -188.36,22.43 -389.99,55.8 -578.39,84.85 -94.9,14.63 -189.79,28.48 -284.64,43.77 -73.18,11.8 -211.34,54.7 -271.81,12.44z"/>
   <path class="fil1" d="M7484.76 6165.03c11.78,31.97 38.47,100.16 63.07,118.75l-13.77 -58.29c22.9,-15.25 317.58,-76.35 356.87,-79.21l110.06 -221.95c-310.57,-71.83 -290.83,-82.96 -245.03,-208.57 16.22,-44.5 93.35,-121.76 136.05,-130.22 38.83,-7.69 181.35,24.98 235.98,30.24l33.87 -125.61c-157.17,-66.19 -143.64,-55.21 -310.46,-20.96l-517.17 93.45c-79.1,16.25 -44.87,37.39 17.48,33.85 68.21,-3.87 322.76,-35.66 336.44,55.68 6.44,43.03 -36.89,88.44 -49.78,17.22 -11.4,-62.96 -62.12,-48.8 -119.85,-49.96 -42.27,-0.86 -154.85,-3.74 -188.39,17.08 -54.57,33.87 78.39,45.87 88.64,46.61 182.05,13.09 193.14,7.54 134.58,188.21 -36.03,111.17 -105.88,177.14 -68.59,293.68z"/>
   <path class="fil12" d="M3453.9 3067.68c4.31,53.11 -0.51,89.93 -2.46,141.34 -1.81,47.95 18.21,81.27 -30.56,91.83 -14.55,22.68 -107.45,56.37 -136.51,59.82 -55.88,6.64 -138.95,-1.33 -193.87,-15.27 -124.1,-31.51 -174.1,-177.32 -221.91,-200.16 -88.33,34.56 -6.59,340.46 -4.44,419.12 2.94,107.29 -19.11,111.91 26.55,217.41 25.99,60.04 49.04,123.74 94.34,171.79 -57.59,-143.75 -120.5,-135.94 95.26,-254.28 80.44,-44.11 272.69,-115.28 360.95,-88.07l-12.21 36.72c22.48,-21.42 52.52,-62.58 70.73,-88.71 21.51,-30.88 31.16,-92.67 51.2,-98.69l1.23 61.22c22.52,-44.48 45.37,-193.21 56.71,-250.98 8.83,-45 8.21,-100.55 7.39,-146.79 -0.89,-50.22 -17.52,-89.54 -15.68,-131.49l-19.07 -27.26c-23.16,32.02 36.65,151.9 9.81,210.74 -13.44,3.76 -104.14,25.82 -115.22,27.76 -13.32,-42.8 3.17,-98.55 -22.24,-136.05z"/>
   <path class="fil9" d="M6082.16 5891.19l-88.12 8.31c5.92,-25.72 139.37,-172.4 152.8,-226.85l88.71 -150.3c57.12,-12.81 276.84,76.45 344.77,79.1 33.49,-23.65 -11.79,-16.3 27.79,-19.23l127.07 -27.64c27.25,-7.05 34.01,-19.73 66.3,-26.2 67.42,-13.53 250.12,-46.62 295.54,-92.77l67.63 93.08c-99.09,-235.9 -158.57,-212.13 -393.26,-252.64 -91.33,-15.77 -181.82,-26.23 -273.19,-39.68 -133.95,-19.71 -127.52,-14.97 -206.08,90.25 -110.35,147.78 -310.57,391.11 -400,549.53 -51.54,91.29 158.06,28.05 190.04,15.04z"/>
   <path class="fil5" d="M1586.75 5021.48l-13.93 -16.19c52.05,-11.51 104.38,-59.97 76.55,-115.86 31.1,1.29 39.65,13.34 65.86,20.54 44.14,12.12 37.01,-1.33 72.71,-17.81 40.38,-42.03 168.08,-306 187.08,-367.51 -122.98,22.59 -837.35,101.32 -877.14,122.46 -22.46,41.34 -27.84,129.54 20.71,160.27 38.77,24.54 111.29,54.32 155.26,73.88 103.42,46 207.84,99.76 312.9,140.22z"/>
   <path class="fil12" d="M6146.84 5672.65c140.17,-113.98 -15.57,-176.25 240.67,-106.69 184.57,50.11 132.99,19.39 280.99,136.25 74.84,59.1 156.37,123.54 228.44,185.03 148.56,126.76 218.48,145.05 155.83,199.42 42.83,-16.51 227.24,-122.46 254.15,-153.03 7.07,-47.85 0.63,-73.31 -17.14,-116.85 -20.45,-50.14 -8.95,-70.34 -29.29,-116.48 -15.92,-36.15 -70.76,-146.8 -95.84,-171.61l-67.63 -93.08c-45.42,46.15 -228.12,79.24 -295.54,92.77 -32.29,6.47 -39.05,19.15 -66.3,26.2l-127.07 27.64c-39.58,2.93 5.7,-4.42 -27.79,19.23 -67.93,-2.65 -287.65,-91.91 -344.77,-79.1l-88.71 150.3z"/>
   <path class="fil11" d="M7097.82 6104.3c47.24,9.86 54.63,90.99 85.02,184.2l191.62 607.5c42.31,-18.1 252,-291.5 273.92,-342.8 -6.71,-39.62 -29.08,-101.64 -55.06,-131.04 11.26,37.99 66.11,123.19 25.58,150.39 -68.92,-14.91 -203.31,-549.73 -282.32,-600.99 -34.62,-0.38 -200.68,106.71 -238.76,132.74z"/>
   <path class="fil5" d="M1803.64 4924.41c15.16,40.96 84.38,57.28 125.1,73.89 71.84,29.3 374.99,162.73 405.8,159.99l-23.1 -172.62c24.17,-93.41 -34.99,-320.31 -8.73,-451.15l2.2 -158.16c-25.29,39.56 -4.54,59.83 -16.62,105.41 -31.05,12.01 -108.51,23.07 -139.97,18.57 0.92,-39.09 66.59,-101.12 78.37,-165.55 -29.79,24.49 -177.8,257.73 -208.94,307.54 -49.82,79.68 -143.26,224.52 -214.11,282.08z"/>
   <path class="fil8" d="M1024.47 6554.65c53.86,-36.45 137.6,-170.34 188.39,-228.15 27.2,-30.97 77.07,-83.67 94.85,-117.57 20.95,-39.94 47.61,-106.21 76.47,-137.91 -30.62,-19.49 -137.94,-20.8 -182.24,-25.69 -60.6,-6.68 -101,-30.49 -162.55,-40.25 -119.91,-19 -239.77,-2.33 -353.59,-47.37 26.78,108.22 262.42,500.11 338.67,596.94z"/>
   <path class="fil5" d="M6934.07 5237.72l-10.59 18.64c36.36,1.81 82.55,13.02 118.73,21.33 68.1,15.62 54.03,28.67 69.48,78.27 60.47,42.26 198.63,-0.64 271.81,-12.44 94.85,-15.29 189.74,-29.14 284.64,-43.77 188.4,-29.05 390.03,-62.42 578.39,-84.85l33.86 -170.66 -1346.32 193.48z"/>
   <path class="fil13" d="M1829.54 5523.59c71.56,51.38 172.95,92.13 254.39,140.75 104.18,62.19 207.05,90.5 12.02,122.62 -230.76,38 -490.01,57.64 -719.91,-2.12 -34.31,-8.92 -38.81,-26.83 -77.86,-36.91 -29.15,-7.52 -129.56,-41.03 -146.9,-42.32 -58.49,-4.34 35.28,53.8 51.58,60.64l307.28 91.46c54.39,10.39 109.97,19.34 164.72,29.43 159.24,29.35 233.26,4.58 311.7,77.32 55.83,-55.02 -27.95,-27.37 110.97,-108.65 42.57,-24.91 87.57,-54.08 129.61,-80.49 42.91,-26.96 248.2,-136.89 264.4,-158.3l-87.61 -217.42 -40.81 -20.84 23.56 30.47c-76.43,55.1 -288.72,36.3 -364.85,67.8 -25.25,10.45 -14.21,21.27 -58.22,26.94 -41.34,5.33 -103.53,-8.22 -134.07,19.62z"/>
   <path class="fil7" d="M5910.61 5441.19c-43.54,48.72 -46.21,77.91 -74.97,132.14l-159.21 263.78c-72.97,120.42 -64.61,58.64 -160.84,272.01 -36.01,79.84 -181.79,305.13 -233.19,413.31l15 23.98c35.3,-31.92 44.09,-36.65 83.85,-57.52 49.19,-25.83 76.19,-17.42 104.92,-31.26 33.37,-16.07 90.58,-133.11 123.06,-141.46 39.21,-89.68 85.9,-170.88 125.96,-258.12 15.17,-33.03 45.56,-102.82 67.68,-128.33 30.32,-34.99 68.77,-69.33 80.19,-116.58 11.44,-46.31 61.77,-120.03 83.59,-175.72 18.8,-47.98 63.97,-141.86 57.9,-189.41 -47.67,-34.12 -71.84,-35.86 -113.94,-6.82z"/>
   <path class="fil5" d="M2140.21 2078.22c-55.66,14.43 -91.27,-7.13 -150.99,-3.41l-19.7 46.29 30.58 -36.23c35.76,0.22 84.19,0.61 114.43,18.81 -8.2,22.93 -74.76,93.6 -95.44,118.54 -47.34,57.04 -50.81,84.25 -131.05,72.21l-50.34 -4.19c-0.6,64.94 -30.28,87.06 -33.17,135.55 9.18,120.25 29.01,56.4 63.12,114.09 -12.45,23.56 -33.36,29.66 -56.7,44.88 -121.85,115.77 345.78,50.02 357.91,58.64 44.33,55.36 16.2,216.27 49.08,295.09 50.79,121.75 52.24,167.25 40.51,300.34 -10.24,116.13 -14.84,217.38 -16.32,334.1 -0.72,56.91 3.71,122.12 -0.6,177.37 -3.95,50.79 -20.95,100.34 -26.97,155.19 64.15,-101.71 37.85,-300.85 44.85,-422.65 7.99,-139.24 28.55,-304.04 13.87,-441.36 -8.69,-81.28 -46.31,-96.37 -54.72,-179.94 -7.02,-69.75 -9.46,-143.57 -13.33,-213.85 -8.88,-161.27 1.83,-269.58 -14.55,-440.78 -39.09,1.63 -16.45,5.9 -48.24,-7.02 -4.14,-55.99 81.24,-55.71 74.79,-139.03 -32.02,-10.64 -53.83,-9.17 -77.02,17.36z"/>
   <path class="fil4" d="M1336.37 1999.56c43.05,-8.36 27.72,6.77 60.42,7.41 25.67,0.5 15.87,-12.26 47.67,-3.02 33.65,9.77 86.85,33.45 122.14,46.76 58.43,22.04 56.32,39.17 80.59,93.52 9.68,21.69 41.46,86.34 42.68,105.9 -31.39,3.04 -220.73,-45.32 -245.77,-62.78 -54.2,-37.8 -30.55,-66.41 -34.9,-106.97 -4.31,-40.26 -44.69,-49.61 -72.83,-80.82zm-117.8 -280.82l74.03 55.53 -34.36 37.14 -64.44 -61.02 -67.73 89.4 42.04 -20.81c83.21,48.53 43.31,70.01 100.8,129.56 33.09,34.29 37.08,35.22 33.68,92.02 -1.82,30.43 -7.66,68.46 -26.56,92.98l-68.08 -26.09c22.31,49.39 146.27,199.8 192.03,223.6 39.14,7.72 164.03,39.12 191.81,62.37l-43.69 68.04 47.81 35.62c29.52,-29.67 29.48,-66.87 50.7,-97.04l157.92 25.75c2.89,-48.49 32.57,-70.61 33.17,-135.55 -63.76,-15.74 -73.06,-5.46 -93.71,-71.86 -12.15,-39.05 -27.74,-70.98 -41.04,-108.47 -29.45,-71.73 -25.69,-91.99 -102.85,-119.32 -67.82,-24.04 -101.56,-22.81 -123.24,-88.79 -29.23,10.86 -3.07,26.38 -47.8,13.14 -7.01,-2.08 -42.7,-22.61 -48.43,-28.22 -17.16,-16.78 -20.2,-81.02 -20.16,-107.59 -4.74,-35.95 -83.36,-81.43 -115.87,-94.22l-26.03 33.83z"/>
   <path class="fil10" d="M7484.84 3025.4c-19.49,65.54 -40.2,131.15 -42.23,200.22 -3.21,108.91 11.95,109.41 -38.25,208.97 -48.85,96.88 -120.4,250.87 -140.98,355.24l19.83 -23.75 18.32 27.77 75.46 -41.69c40.37,-122.27 200.68,-66.43 159.67,49.62l0.79 64.81c71.71,-166.56 92.83,-560 128,-646.63 21.5,-52.93 49.3,-173.25 48.83,-229.06l-21.85 51.55c-28.91,-33.8 -0.17,-25.76 -63.97,-25.89 -47.71,-0.2 -75.68,6.94 -118.33,-13.8l-25.29 22.64z"/>
   <path class="fil1" d="M1586.75 5021.48l776.37 357.28 40.81 20.84c-16.51,-67.94 -35.33,-135.43 -48.56,-204.08 -9.91,-51.42 -16.24,-176.19 -43.93,-209.85l23.1 172.62c-30.81,2.74 -333.96,-130.69 -405.8,-159.99 -40.72,-16.61 -109.94,-32.93 -125.1,-73.89l-36.71 12.89c-7.55,-29.86 -2.08,-23.52 21.01,-45.14 -35.7,16.48 -28.57,29.93 -72.71,17.81 -26.21,-7.2 -34.76,-19.25 -65.86,-20.54 27.83,55.89 -24.5,104.35 -76.55,115.86l13.93 16.19z"/>
   <path class="fil14" d="M1024.47 6554.65l59.26 82c64.46,-22.21 78.83,-13.91 109.24,-76.21 42.59,-87.24 210.23,-110.12 255.03,-133.53 44.76,-23.4 56.3,-79.02 77.24,-118.1 29.77,-11.67 65.7,-13.07 87.71,-21.91 50.34,-20.21 10.9,-35.22 47.66,-67.45 -36.23,-15.25 -87.36,-25.93 -115.83,-51.21 -20.07,-17.83 -17.7,-25.22 -42.88,-41.2 -22.82,-14.48 -26.73,-11.17 -49.33,-31.65l-68.39 -24.37c-28.86,31.7 -55.52,97.97 -76.47,137.91 -17.78,33.9 -67.65,86.6 -94.85,117.57 -50.79,57.81 -134.53,191.7 -188.39,228.15z"/>
   <path class="fil13" d="M1970.43 1813.78c38.59,22.32 -5.72,129.92 19.19,192.69 32.15,81 122.34,31.47 150.59,71.75 23.19,-26.53 45,-28 77.02,-17.36 6.45,83.32 -78.93,83.04 -74.79,139.03 31.79,12.92 9.15,8.65 48.24,7.02 12.4,-65.3 36.55,-141.43 57.98,-203.62 10.28,-29.86 67.32,-174.64 68.32,-189.41 8.73,-46.7 -6.93,-170.39 -72.44,-90.32 18.78,29.98 42.56,61.71 45.99,97.55 -28.44,-20.52 -41.78,-94.52 -90.73,-117.51 -21.67,-10.18 -154.75,-23.65 -194.36,-30.56l31.95 20.81c-16.59,36.44 -14.2,-4.47 -21.74,65.58 -2.79,25.91 -5.29,66.2 -10.52,89.55l-19.61 -46.24 -15.09 11.04z"/>
   <path class="fil11" d="M2253.98 6800.96c65.62,-26.58 100.73,-93.38 162.33,-126.99 75.39,-41.13 92.71,-80.38 144.87,-141.69 76.02,-89.35 205.85,-240.45 226.22,-355.24 -63.08,35.87 -69.41,-13.37 -111.26,20.98 -9.38,7.7 -79.33,108.23 -140.7,149.28 -96.07,64.25 -143.7,116.1 -217.2,212.91 -49.06,64.62 -55.44,160.24 -64.26,240.75z"/>
   <path class="fil14" d="M6923.48 5256.36l10.59 -18.64c-5.09,-266.99 -43.15,-225.33 112.77,-259.99 76.85,-17.08 27.45,-0.34 67.16,-40.27 61.48,-61.83 109.18,-58.64 104.62,-154.16 -5.75,-120.38 -64.86,-97.81 -156.16,-115.67 -24.28,-4.75 -141.48,-52.19 -188.25,-90.78 8.45,53.24 19.65,41.63 26.91,67.7 3.1,11.14 -5.8,43.42 -4.38,70.97 7.39,143.3 25.52,217.49 13.57,373.19 -2.2,28.76 -7.13,56.58 -10.16,85.13 -4.82,45.3 -15.41,66.68 23.33,82.52z"/>
   <path class="fil10" d="M1642.57 1270c20.77,36.42 16.9,18 39.19,42.11 16.06,17.38 -0.61,13.03 22.36,38.99 34.47,38.97 66.86,20.36 83.19,81.26 29.31,-38.71 51.7,-32.22 90.27,-16.66 59.12,23.85 65.85,2.58 121.37,0.38 77.68,-3.08 130.92,49.76 155.33,118.96l22.96 54.11 18.79 9.66c9.59,-50.77 -59.95,-160.74 -102.36,-187.98 -60.76,-39.02 -44.02,-5.23 -66.5,-84.85 -11.2,-39.67 -25.87,-74.43 -38.78,-112.89 -4.99,-28.96 39.69,-32.29 -9.66,-84.08 -11.61,-12.19 -72.81,-43.75 -90.66,-49.14 -38.88,9.34 -200.27,154.23 -245.5,190.13z"/>
   <path class="fil6" d="M4512.14 2748.9l-4.39 -5.66c32.37,34.88 39.73,23.4 89.85,21.93 27.53,-0.81 55.73,0.11 82.86,4.92 55.21,9.79 90.88,19.59 120.93,69.48 -0.11,40.44 9.85,51.06 -12.39,84.06 -7.08,55.49 -168.3,239.56 -223.49,232.3 -6.06,-28.09 -4.55,-53.05 14.43,-76.83 4.24,-76.31 3.47,-202.23 -47.52,-263.45l-34.54 -9.17c-0.72,5.67 35.98,145.2 38.33,183.58 3.42,55.98 -6.74,137.6 -48.84,176.53 1.62,55.59 -39.01,57.92 -70.9,88.69 -35.55,24.22 -154.99,16.83 -196.69,4.04 -59.48,-60.01 -107.15,-307.57 -44.04,-361.76 18.66,-16.03 123.2,-57.35 155.29,-71.98 113.26,-51.66 142.95,-20.91 160.47,-57.51 -21.87,-20.21 -27.42,-13.56 -57.98,-18.3l-125.67 45.05c-19.73,15.11 -92.98,44.3 -122.75,60.36 -77.02,41.54 -47.97,40.68 -90.99,91.57 -4.16,25.36 -24.76,69.68 -10.7,82.15 56.75,50.34 -8.51,58.71 48.89,180.76 26.16,55.64 -3.28,47.35 9.04,83.22 14.39,4.97 88.97,-2.72 117.41,-1.17 217.69,11.83 117.88,33.43 309.9,-86.38 92.46,-57.69 218.55,-187.69 268.04,-284.37 2.25,-43.06 8.2,-89.76 -7.58,-130.13 -67.02,-60.94 -233.04,-58.01 -316.97,-41.93z"/>
   <path class="fil9" d="M4570.48 2492.68c51.68,11.03 76.31,79.68 108.06,118.63 23.83,29.23 95.24,96.15 95.14,127.97 -69.29,16.53 -181.11,-53.32 -261.54,9.62 83.93,-16.08 249.95,-19.01 316.97,41.93 15.78,40.37 9.83,87.07 7.58,130.13l2.33 0c20.14,-63.99 -3.43,-93.29 15.3,-132 83.71,33.57 -6.15,74.44 158.9,46.01l16.12 -46.41c33.15,30.34 -0.8,34.19 44.83,69.48 -63.96,-233.15 -73.9,-164.87 -228.87,-311.98 -27.34,-25.95 -63.87,-71.18 -89.29,-90.45 -29.29,5.02 -46.71,15.88 -86.18,20.33 -39.4,4.45 -67.69,-3.39 -99.35,16.74z"/>
   <path class="fil6" d="M2253.98 6800.96c-18.75,41.04 -198.93,224.74 -243.81,281.04 -71.44,89.63 -160.64,207.04 -223.46,300.93 18.48,22.76 38.28,40.44 66.23,50.8 101.58,-191.98 335.46,-461.55 487.4,-622.82 41.26,-43.8 99.65,-90.08 145.42,-134.06 73.2,-70.34 189.24,-222.31 251.99,-306.71 53.37,-71.78 90.51,-97.81 49.65,-193.1 -20.37,114.79 -150.2,265.89 -226.22,355.24 -52.16,61.31 -69.48,100.56 -144.87,141.69 -61.6,33.61 -96.71,100.41 -162.33,126.99z"/>
   <path class="fil13" d="M5910.61 5441.19c42.1,-29.04 66.27,-27.3 113.94,6.82 6.07,47.55 -39.1,141.43 -57.9,189.41 -21.82,55.69 -72.15,129.41 -83.59,175.72l228.81 -310.86c258.35,-339.52 276.16,-335.26 60.14,-327.95 -72.92,2.47 -84.94,-6.74 -120.35,55.45 -39.65,69.63 -97.39,141.93 -141.05,211.41z"/>
   <path class="fil11" d="M1566.33 1343.67c12.65,42.24 -26.84,102.97 8.84,134.35 26.47,-23.03 4.67,-66.13 23.91,-111.44l51.84 -3.58 6.27 -34.1c23.82,12 41.63,40.62 61.32,59.86 33.47,32.71 37.79,32.09 31.59,81.24 -6.13,48.57 -13.99,168.38 -31.38,207.89l-135.5 25.55 -44.72 49.86c66.96,20.33 64.6,-86.18 165.58,22.51 40.38,43.47 31.41,36.05 32.6,95.19 0.8,39.9 17.97,76.96 3.25,107.4 -42.86,173.95 65.75,186.95 206.43,188.43l13.7 -31.21c-84.87,-0.23 -246.09,6.95 -194.23,-132.05 22.06,-4.36 104.28,11.88 126.54,22.58 37.61,18.08 4.99,14.02 45.07,41.31 31.56,21.49 28.82,9.53 32.08,53.64l19.7 -46.29c59.72,-3.72 95.33,17.84 150.99,3.41 -28.25,-40.28 -118.44,9.25 -150.59,-71.75 -24.91,-62.77 19.4,-170.37 -19.19,-192.69 -2.48,41.41 -9.4,84.25 -9.19,125.26 0.25,47.53 16.04,67.3 18.61,99.9 -18.63,-8.09 -18.37,-24.14 -54.12,-36.31 -28.76,-9.79 -57.33,-6.21 -76.74,-34.57 -41.86,-61.18 22.67,-129.38 11.19,-153.37 -51.9,32.7 -28.92,123.02 -38.68,156.55 -95.28,31.83 -67.69,-163.08 -25.44,-226.19 79.92,-119.34 75.37,-93.06 209.38,-72.01 39.61,6.91 172.69,20.38 194.36,30.56 48.95,22.99 62.29,96.99 90.73,117.51 -3.43,-35.84 -27.21,-67.57 -45.99,-97.55l-39.36 -49.03c-48.81,-20.28 -123.49,-22.89 -181.02,-33.7 -25.18,-4.73 -178.14,-23.32 -178.47,-23.48l-26.88 -15.96 -31.6 -3.62 39.8 53.01 -91.13 134.53c-23.13,-10.96 -57.27,-41.37 -66.28,-64.47 77.34,-73.23 63.46,106.54 117.71,-288.48 -16.33,-60.9 -48.72,-42.29 -83.19,-81.26 -22.97,-25.96 -6.3,-21.61 -22.36,-38.99 -22.29,-24.11 -18.42,-5.69 -39.19,-42.11l-76.24 73.67z"/>
   <path class="fil12" d="M4839.02 2920.96l14.62 -97.67c22.65,-0.57 65.73,53.91 83.73,71.07 99.22,94.57 85.46,185.22 132.43,377.95 22.73,93.25 43.54,183.98 60.52,278.17l30 284.81c31.92,-58.03 20.5,-446.39 3.19,-522.32 -14.8,-64.94 -12.9,-163.33 -32.04,-242.47 -16.3,-67.38 -36.82,-146.98 -57.3,-212.46 -45.63,-35.29 -11.68,-39.14 -44.83,-69.48l-16.12 46.41c-165.05,28.43 -75.19,-12.44 -158.9,-46.01 -18.73,38.71 4.84,68.01 -15.3,132z"/>
   <path class="fil3" d="M3433.53 2053.17c-127.58,37.61 -427.09,360.74 -529.01,504.01 -16.16,22.71 -56.36,73.86 -46.79,101.91 11.25,32.96 61.66,-47.98 68.13,-55.26 28.36,-31.95 66.47,-42.82 98.79,-68.86 25.65,-20.67 58.5,-62.36 82.61,-88.08l381.62 -312.34c17.61,-12.02 80.99,-47.1 26.35,-60.3 -21.17,-5.12 -32.08,-2.7 -56.1,-9.96 -2.71,-0.82 -22.89,-11.92 -25.6,-11.12z"/>
   <path class="fil4" d="M4483.25 2511.03c-15.73,44.73 -93.8,85.69 -131.52,121.94 -14.41,13.84 -55.66,49.74 -62.37,64.65 -12.62,28.03 -16.85,83.42 18.49,97.2l125.67 -45.05 74.23 -6.53 4.39 5.66c80.43,-62.94 192.25,6.91 261.54,-9.62 0.1,-31.82 -71.31,-98.74 -95.14,-127.97 -31.75,-38.95 -56.38,-107.6 -108.06,-118.63l-87.23 18.35z"/>
   <path class="fil13" d="M364.07 4930.82l8.46 64.47c87.61,0.39 27.65,23.04 176.94,49.22 92.52,16.23 195.42,69.97 280.35,69.58 115.9,-0.55 139.71,25.89 274.23,39.97 -55.54,-54.96 -286.49,-125.73 -350.55,-214.96 -91.65,-28.13 -39.2,-66.09 -178.82,-43.15 -57.37,9.42 -161.27,20.52 -210.61,34.87z"/>
   <path class="fil7" d="M1404.61 1811.83l-14.32 -31.29 -29.82 -1.41c-0.04,26.57 3,90.81 20.16,107.59 5.73,5.61 41.42,26.14 48.43,28.22 44.73,13.24 18.57,-2.28 47.8,-13.14 21.68,65.98 55.42,64.75 123.24,88.79 77.16,27.33 73.4,47.59 102.85,119.32 26.34,-51.53 -6.69,-96.77 36.98,-131.51 14.72,-30.44 -2.45,-67.5 -3.25,-107.4 -1.19,-59.14 7.78,-51.72 -32.6,-95.19 -100.98,-108.69 -98.62,-2.18 -165.58,-22.51l-66.49 -28.02c-29.7,42.56 11.25,15.45 -33.46,60.28 -19.04,19.1 -19.91,25.29 -36.92,45.32l2.98 -19.05z"/>
   <path class="fil12" d="M3581.35 6395.02c-37.58,-170.3 -20.19,-370.03 -17.6,-544.55 1.06,-71.69 5.47,-200.58 -11.98,-267.34 -14.65,-56.05 -25.86,-38.85 -22.64,-113.74 2.18,-50.71 1.13,-72.2 35.29,-110.32 -59.93,17.45 -45.17,45.06 -52.13,105.67 -5.57,48.58 -11.55,97.07 -17.12,145.68 -35.44,308.95 -36.91,258.66 -46.95,588.14 -2.11,69.15 77.11,161.2 133.13,196.46z"/>
   <path class="fil11" d="M5726.9 7925.78l23.84 13.83c-0.98,50.72 -9.62,61.13 -26.51,103.72 54.95,-7.93 380.25,-146.67 414.1,-180.8 -21.11,-12.49 -85.79,-88.08 -105.48,-111.56 -152.33,-181.66 -167.1,4.05 -206.38,74.65 -74.5,133.89 -52.59,72.19 -99.57,100.16z"/>
   <path class="fil5" d="M7547.83 6283.78c-1.55,50.64 30.45,88.69 45.49,138.38 25.98,29.4 48.35,91.42 55.06,131.04 55.05,-83.9 219.37,-322.5 242.55,-406.92 -39.29,2.86 -333.97,63.96 -356.87,79.21l13.77 58.29z"/>
   <path class="fil13" d="M1452.57 6095.39c22.6,20.48 26.51,17.17 49.33,31.65 25.18,15.98 22.81,23.37 42.88,41.2 28.47,25.28 79.6,35.96 115.83,51.21 84.42,15.25 152.5,44.05 245.26,53.75 -15.92,-77.21 -22.32,-52.03 2.61,-138.77 13.05,-45.41 41.39,-77.14 57.62,-131.52 -43.12,25.37 -24.8,39.33 -53.64,75.81 -100.24,12.8 -410.37,-83.42 -460.66,-60.11 47.55,23.58 114.78,21.77 113.18,74.43 -36.98,15.1 -72.6,10.71 -112.41,2.35z"/>
   <path class="fil4" d="M1609.57 1671.86c-67.33,-32.94 -22.48,-91.64 3.41,-142.42 21.31,-41.8 46.28,-119.14 96.89,-118.29 45.51,51.85 8.58,95.05 -16.58,145.52 -20.51,41.16 -38.35,99.04 -83.72,115.19zm-43.24 -328.19l-68.11 70.27c-5.16,32.98 -0.71,74.84 -18.48,100.84 -30.05,-6.08 -26.71,-12.89 -48.87,-34.48l-16.47 18.3c-3.66,50.38 -18.49,124.36 30.91,155.21 40.57,25.35 90.68,49.84 137.91,49.63l135.5 -25.55c17.39,-39.51 25.25,-159.32 31.38,-207.89 6.2,-49.15 1.88,-48.53 -31.59,-81.24 -19.69,-19.24 -37.5,-47.86 -61.32,-59.86l-6.27 34.1 -51.84 3.58c-19.24,45.31 2.56,88.41 -23.91,111.44 -35.68,-31.38 3.81,-92.11 -8.84,-134.35z"/>
   <path class="fil13" d="M3320.82 6011.29c15.46,40.98 39.65,131.41 81.24,144.75 27.7,-35.91 5.49,-83.6 18.02,-130.64 17.9,-67.23 20.51,-279.79 39.48,-413.27 -50.98,85.29 -19.88,335.07 -49.02,376.91 -28.33,-15.24 -55.97,-96.41 -65.26,-129.17 -33.54,-118.18 64.48,-383.75 89.86,-516.33 -39.16,9.19 -31.21,8.96 -62.59,26.71 -32.82,18.57 -32.44,8.57 -65.57,19.01 -16.91,79.74 -37.88,393.88 -16.72,480.25 11.65,47.51 26.05,92.69 30.56,141.78z"/>
   <path class="fil2" d="M1970.43 1813.78l15.09 -11.04 19.61 46.24c5.23,-23.35 7.73,-63.64 10.52,-89.55 7.54,-70.05 5.15,-29.14 21.74,-65.58l-31.95 -20.81c-134.01,-21.05 -129.46,-47.33 -209.38,72.01 -42.25,63.11 -69.84,258.02 25.44,226.19 9.76,-33.53 -13.22,-123.85 38.68,-156.55 11.48,23.99 -53.05,92.19 -11.19,153.37 19.41,28.36 47.98,24.78 76.74,34.57 35.75,12.17 35.49,28.22 54.12,36.31 -2.57,-32.6 -18.36,-52.37 -18.61,-99.9 -0.21,-41.01 6.71,-83.85 9.19,-125.26z"/>
   <path class="fil5" d="M753.5 4939.1c64.06,89.23 295.01,160 350.55,214.96 36.97,9.46 35.85,19.1 71.46,10.53 13.09,-40.06 13.25,-185.43 -1.47,-225.08 -69.58,-33.01 -347.54,-28.96 -420.54,-0.41z"/>
   <path class="fil1" d="M4075.58 291.79c599.38,-78.21 869.03,188.49 970.92,157.86l35.36 -136.38c-151.07,-34.69 -380.45,-59.27 -535.77,-59.27 -31.73,35.11 -47.67,23.03 -91.56,14.05 -42.53,-8.7 -75.55,-4.77 -119.37,-5.26 -57.63,-0.65 -226.67,-12.97 -259.58,29z"/>
   <path class="fil11" d="M6818.57 4073.09l51.82 -67.96 81.01 69.48c67.1,10.54 213.81,22 235.96,97.68 -51.96,45.25 -267.56,24.89 -333.03,6.24 5.27,35.86 5.05,49.52 29.02,77.67l-3.75 -31.83c76.03,-24.33 259.13,44.46 329.79,-37.87 15.53,-103.11 -150.53,-124.57 -217.94,-140.83 -23.46,-5.65 -100.85,-41.25 -94.93,-68.19 14.76,-67.22 34.68,-69.74 29.15,-156.78 -39.56,-82.22 -33,-36.36 -86.51,-75.84 -13.84,-52.49 16.82,-91.06 -23.46,-118.29 18.79,91.35 -17.45,33.08 -28.97,91.76 -5.61,28.59 0.84,94.49 -3.4,133.61 -8.37,77.14 -19.53,157.86 35.24,221.15z"/>
   <path class="fil9" d="M4123.1 2590.84c-51.07,11.36 -116.08,11.36 -108,73.01 54.3,38.48 85.14,-0.03 128.79,0.04l-21.22 77.89 28.61 -2.8c7.57,30.47 -19.13,96.39 -52.33,88.55l4.21 -42.24c-64.08,46.59 -6.78,120.38 -9.05,161.46 43.02,-50.89 13.97,-50.03 90.99,-91.57 29.77,-16.06 103.02,-45.25 122.75,-60.36 -35.34,-13.78 -31.11,-69.17 -18.49,-97.2 6.71,-14.91 47.96,-50.81 62.37,-64.65 37.72,-36.25 115.79,-77.21 131.52,-121.94 -83.46,9.47 -168.45,33.11 -244.68,68.83 -50.9,23.86 -143.37,120.63 -209.67,75.57 8.41,-56.06 51.34,-20.61 94.2,-64.59z"/>
   <path class="fil12" d="M4807.66 6203.45c59.32,-18.83 120.61,-38.14 180.27,-55.86 65.42,-19.44 106.9,-45.5 165.45,-63.83 54.1,-16.94 313.38,-113.74 344.18,-80.22 -40.61,44.89 -193.25,36.55 -248.94,92.42 78.31,-12.82 148.07,-26.51 227.99,-25.8l8.3 28.25c46.62,-50.86 40.69,-141.09 103.04,-181.58 -113.1,-23 -439.28,73.94 -531.41,123.42 -44.49,23.9 -32.26,40.41 -75.4,61.1 -46.13,22.13 -146.47,63.02 -173.48,102.1z"/>
   <path class="fil11" d="M4429.92 3012.32c-18.38,-60.09 34.48,-74.37 82.59,-56.79 23.23,67.02 -30.06,78.16 -82.59,56.79zm-8.85 -110.5c-44.43,-27.87 3.18,-87.82 46.25,-79.42 6.55,33.8 -15.43,67.02 -46.25,79.42zm-4.6 353.46l-190.66 1.61c-32.73,-40.24 -55.06,-71.61 -31.4,-120.45 53.69,-14.54 43.34,10.33 89.68,28.75 -21.97,-34.16 -43.96,-35.69 -59.58,-74.52 -17.36,-43.18 -8.16,-49.07 -40.66,-91.5l9.42 -6.53c-18.12,-26.58 -36.85,-36.93 -20.13,-73.92 11.9,-26.32 39.98,-34.07 66.18,-31.38 17.56,25.29 14.26,20.68 14.02,51.68l8.37 0.71 6.49 -50.55c56.57,-29.67 89.93,-14.72 130.13,26.3 -3.3,54.39 10.53,155.55 -4.09,197.47 39.18,-36.91 56.58,-38.31 102.55,-4.08l-9.42 57.72c42.1,-38.93 52.26,-120.55 48.84,-176.53 -2.35,-38.38 -39.05,-177.91 -38.33,-183.58l34.54 9.17 -7.44 -33.24c92.38,-34.17 200.46,4.75 276.41,57.16 -30.05,-49.89 -65.72,-59.69 -120.93,-69.48 -27.13,-4.81 -55.33,-5.73 -82.86,-4.92 -50.12,1.47 -57.48,12.95 -89.85,-21.93l-74.23 6.53c30.56,4.74 36.11,-1.91 57.98,18.3 -17.52,36.6 -47.21,5.85 -160.47,57.51 -32.09,14.63 -136.63,55.95 -155.29,71.98 -63.11,54.19 -15.44,301.75 44.04,361.76 41.7,12.79 161.14,20.18 196.69,-4.04z"/>
   <path class="fil3" d="M3693.3 2369.86c176.03,-94.14 320.44,-236.8 473.03,-362.44 184.3,-151.75 250.86,-277.84 387.8,-460.19 -132.98,98.9 -306.74,287.5 -430.99,407.81 -69.53,67.32 -140.79,139.51 -211.65,204 -84.73,77.11 -81.96,79.99 -170.14,140.82 -31.59,21.79 -28.06,38.98 -48.05,70z"/>
   <path class="fil11" d="M8000.99 5924.33l16.94 -43.1c-34.64,-10.05 -137.91,-35.19 -155.43,-58.56 7.56,-17.25 44.54,-43.01 61.95,-75.37 24.07,-44.74 6.26,-58.77 45.9,-103.74 61.58,10.41 65.07,24.89 140.71,24.85l16.93 -52.63c-54.63,-5.26 -197.15,-37.93 -235.98,-30.24 -42.7,8.46 -119.83,85.72 -136.05,130.22 -45.8,125.61 -65.54,136.74 245.03,208.57z"/>
   <path class="fil12" d="M5684.44 6502.44l-70.42 11.58c-2.55,-21.93 323.69,-520.26 363.89,-575.61 -122.12,34.52 -155.74,-34.04 -260.07,244.54 -39.27,104.86 -167.15,307.71 -158.11,340.62 40.36,17.47 90.93,6.61 124.71,-21.13z"/>
   <path class="fil6" d="M4807.66 6203.45c-72.45,34.2 -536.3,154.94 -508.99,257.92 22.97,6.18 62.42,-37.28 86.74,-51.85 35.58,-21.3 82.83,-33.77 122.14,-48.78l741.07 -264.78c55.69,-55.87 208.33,-47.53 248.94,-92.42 -30.8,-33.52 -290.08,63.28 -344.18,80.22 -58.55,18.33 -100.03,44.39 -165.45,63.83 -59.66,17.72 -120.95,37.03 -180.27,55.86z"/>
   <path class="fil0" d="M1787.31 1432.36c-54.25,395.02 -40.37,215.25 -117.71,288.48 9.01,23.1 43.15,53.51 66.28,64.47l91.13 -134.53 -39.8 -53.01 31.6 3.62c20.74,-56.12 80.28,-73.44 134.1,-87.41 91.23,-23.69 119.59,-5.51 201.37,21.06 -24.41,-69.2 -77.65,-122.04 -155.33,-118.96 -55.52,2.2 -62.25,23.47 -121.37,-0.38 -38.57,-15.56 -60.96,-22.05 -90.27,16.66z"/>
   <path class="fil12" d="M4143.08 3441.07c-33.38,82.4 197.21,127.87 258.56,111.3 63.34,-17.11 208.05,-122.84 228.29,-180.12l-486.85 68.82z"/>
   <path class="fil7" d="M2177.24 1589.15c-132.5,-35.28 -215.76,-68.59 -331.55,28.2 0.33,0.16 153.29,18.75 178.47,23.48 57.53,10.81 132.21,13.42 181.02,33.7l11.54 -26.86c51.47,-3.46 46.25,1.83 94.72,-13.46 -8.09,-23.82 -135.36,-159.07 -167.22,-214.78 -23.64,-41.36 -44.42,-83.93 -70.72,-123.49 -21.97,-33.06 -48.09,-107.2 -85.11,-82.85 12.91,38.46 27.58,73.22 38.78,112.89 22.48,79.62 5.74,45.83 66.5,84.85 42.41,27.24 111.95,137.21 102.36,187.98l-18.79 -9.66z"/>
   <path class="fil7" d="M3435.14 5343.54c-25.38,132.58 -123.4,398.15 -89.86,516.33 9.29,32.76 36.93,113.93 65.26,129.17 29.14,-41.84 -1.96,-291.62 49.02,-376.91l28.95 -210.44 -1.61 -75.75c-25.46,-5.11 -36.37,-9.38 -51.76,17.6z"/>
   <path class="fil7" d="M1336.37 1999.56c28.14,31.21 68.52,40.56 72.83,80.82 4.35,40.56 -19.3,69.17 34.9,106.97 25.04,17.46 214.38,65.82 245.77,62.78 -1.22,-19.56 -33,-84.21 -42.68,-105.9 -24.27,-54.35 -22.16,-71.48 -80.59,-93.52 -35.29,-13.31 -88.49,-36.99 -122.14,-46.76 -31.8,-9.24 -22,3.52 -47.67,3.02 -32.7,-0.64 -17.37,-15.77 -60.42,-7.41z"/>
   <path class="fil9" d="M7484.84 3025.4l25.29 -22.64c42.65,20.74 70.62,13.6 118.33,13.8 63.8,0.13 35.06,-7.91 63.97,25.89l21.85 -51.55 55.15 -285.9c-34.25,51.16 -15.42,32.13 -75.46,62.39 -32.04,16.14 -64.62,35.84 -90.71,60.66 -48.16,45.8 -101.87,133.12 -118.42,197.35z"/>
   <path class="fil15" d="M4579.94 3079.1c-18.98,23.78 -20.49,48.74 -14.43,76.83 55.19,7.26 216.41,-176.81 223.49,-232.3l-7.66 -73.37c-25.96,8.91 4.65,10.81 -32.91,17.02l-165.67 -1.69c-10.23,65.53 46,151.36 -2.82,213.51z"/>
   <path class="fil9" d="M7993.11 3000.6l0.8 46.71c25.71,7.21 -0.06,-5.49 24.74,-7.63 18.21,-1.57 22.51,5.04 43.34,7.89 16.42,2.24 87.49,2.74 108.34,2.85 -44.91,-122.47 -76.38,-250.15 -135.47,-366.44 -21.66,42.97 -45.19,263.1 -41.75,316.62z"/>
   <path class="fil9" d="M5770.76 5345.76l-18.33 115.2c37.63,-44.84 9.17,-64.97 38.57,-99.03l70.23 35.87 -2.26 27.11c27.33,-22.5 56.87,-79.7 81.12,-111.36 23.66,-30.9 71.38,-80.53 66.66,-118.62l-194.98 -32.39 -15.19 4.44c-2.92,50.84 13.78,147.75 -25.82,178.78z"/>
   <path class="fil15" d="M1126.07 1839.79l-36.75 48.28 118.63 219.38 68.08 26.09c18.9,-24.52 24.74,-62.55 26.56,-92.98 3.4,-56.8 -0.59,-57.73 -33.68,-92.02 -57.49,-59.55 -17.59,-81.03 -100.8,-129.56l-42.04 20.81z"/>
   <path class="fil7" d="M1595.91 2497.08c11.11,33.77 62.95,60.92 92.74,81.58 91.33,63.32 40.28,22.49 122.3,6.1 23.34,-15.22 44.25,-21.32 56.7,-44.88 -34.11,-57.69 -53.94,6.16 -63.12,-114.09l-157.92 -25.75c-21.22,30.17 -21.18,67.37 -50.7,97.04z"/>
   <path class="fil0" d="M4394.24 3112.95c-17.48,53.91 -60.29,55.59 -110.15,52.24 -46.34,-18.42 -35.99,-43.29 -89.68,-28.75 -23.66,48.84 -1.33,80.21 31.4,120.45l190.66 -1.61c31.89,-30.77 72.52,-33.1 70.9,-88.69l9.42 -57.72c-45.97,-34.23 -63.37,-32.83 -102.55,4.08z"/>
   <path class="fil1" d="M8017.93 5881.23c27.15,-26.64 68.45,-166.79 93.13,-212.82 -75.64,0.04 -79.13,-14.44 -140.71,-24.85 -39.64,44.97 -21.83,59 -45.9,103.74 -17.41,32.36 -54.39,58.12 -61.95,75.37 17.52,23.37 120.79,48.51 155.43,58.56z"/>
   <path class="fil9" d="M7992.48 2582.33l-47.22 -93.13 -70.29 490.92c-4.19,32.98 -36.02,132.4 13.05,135.77 30.06,-24.51 95.2,-464.03 104.46,-533.56z"/>
   <path class="fil3" d="M3245.87 2967.46l-13.76 55.88 -23 0.21c-22.14,-26.89 -20.01,-23.04 -5.04,-59.92l41.8 3.83zm-231.7 -51.42c69.15,-1.91 67.42,23.48 60.79,88.18 15.64,-30.62 6.74,-41.19 32.09,-56.44 50.13,29.52 4.73,88.64 -9.56,125.34 -7.72,19.82 -9.03,44.58 18.88,46.28 25.73,1.56 18.11,-21.66 49.77,-38.52l10.98 33.67c40.17,-28.74 36.33,-27.62 87.3,-23.41 6.83,-50.32 9.63,-80.15 -18.55,-123.68 -4.87,-51.85 -29.17,-87.27 -84.31,-83.87 -55.69,3.43 -105.27,-2.55 -147.39,32.45z"/>
   <path class="fil10" d="M3313.01 4155.62c26.61,33.16 162.74,19.31 206.47,17.06 117,-6 69.78,27.77 197.26,-23.71 51.88,-20.95 364.05,-39.08 338.42,-119.33 -47.96,-21.72 -116.32,32.5 -163.23,48.05 -57.02,18.89 -143.02,21.03 -205.27,35.1 -115.15,26.03 29.57,24.07 -189.98,20.85 -24.34,-0.36 -174.32,9.87 -183.67,21.98z"/>
   <path class="fil1" d="M6854.33 4178.53c65.47,18.65 281.07,39.01 333.03,-6.24 -22.15,-75.68 -168.86,-87.14 -235.96,-97.68 -46.16,10.17 -10.4,6.39 -48.65,35.05 -14.21,10.65 -33.33,17.22 -47.5,26.23l-0.92 42.64z"/>
   <path class="fil9" d="M7935.95 2472.27c-12.38,-29.98 -17.26,-46.74 -41.31,-67.74 -2.64,92.52 -108.86,672.07 -72.98,704 30.43,-25.05 110,-562.18 114.29,-636.26z"/>
   <path class="fil12" d="M4635.1 5902.78c75.4,-50.15 220.07,-336.29 255.47,-461.85 12,-42.57 19.95,-43.05 30.53,-76.12 -87.12,14.99 -26.95,9.65 -96.87,25.79 -23.8,70.12 2.1,81.97 -20.81,141.03 -16.15,41.65 -37.78,80.81 -58,120.84 -37.65,74.5 -95.04,170.35 -110.32,250.31z"/>
   <path class="fil0" d="M3131.91 3220.2c46.4,-13.93 64.15,37.54 49.98,71.37 -25.3,9.06 -23.25,9.58 -46.92,-5.51l-3.06 -65.86zm66.32 -87c12.86,-18.27 24.2,-19.86 49.45,-16.98l-5.06 40.72c-31.06,4.67 -34.07,6.03 -44.39,-23.74zm-21.11 -18.65l-4.61 18.59c-31.96,91.04 -89.19,-7.56 -154.94,61.95l32.84 3.18c8.36,27.59 9.06,24.92 -6.99,51.76l-30.89 -4.71 3.62 15.71c52.04,36.34 116.21,71.1 180.84,54.5 45.73,-42.72 68.85,-163.33 67.43,-224.39 -50.97,-4.21 -47.13,-5.33 -87.3,23.41z"/>
   <path class="fil13" d="M1702.95 2109.91c13.3,37.49 28.89,69.42 41.04,108.47 20.65,66.4 29.95,56.12 93.71,71.86l50.34 4.19 58.32 -127.6c-140.68,-1.48 -249.29,-14.48 -206.43,-188.43 -43.67,34.74 -10.64,79.98 -36.98,131.51z"/>
   <path class="fil15" d="M3312.07 3173.13l-18.58 78.25c-5.73,42.2 -5.62,27.07 -23.69,59.1 18.79,-2.46 53.1,-16.03 73.52,-22.11 59.37,-17.7 41.33,-4.27 89.36,-2.03 0,-0.01 25.52,-195.38 1.07,-211.9 -61.05,-13.69 -104.24,96.28 -121.68,98.69z"/>
   <path class="fil7" d="M4532.42 2815.65c50.99,61.22 51.76,187.14 47.52,263.45 48.82,-62.15 -7.41,-147.98 2.82,-213.51l165.67 1.69c37.56,-6.21 6.95,-8.11 32.91,-17.02l7.66 73.37c22.24,-33 12.28,-43.62 12.39,-84.06 -75.95,-52.41 -184.03,-91.33 -276.41,-57.16l7.44 33.24z"/>
   <path class="fil13" d="M5282.4 6522.43c-14.14,25.3 -17.64,24.37 -14.44,52.78 38.32,10.47 222.23,-12.77 245.17,-47.12 24.4,-36.53 77.57,-165.92 96.1,-211.92 -32.48,8.35 -89.69,125.39 -123.06,141.46 -28.73,13.84 -55.73,5.43 -104.92,31.26 -39.76,20.87 -48.55,25.6 -83.85,57.52l-15 -23.98z"/>
   <path class="fil3" d="M4261.71 2939.73c66.17,21.61 -4.61,73.99 -5,108.02 -0.43,37.28 36.33,84.31 69.92,93.19 89.96,-49.2 12.17,-142.63 38.19,-223.91l33.51 -1.55c-40.2,-41.02 -73.56,-55.97 -130.13,-26.3l-6.49 50.55z"/>
   <path class="fil11" d="M2997.25 2946.16c26.52,-23.68 23.42,-23.12 57.1,-14.32 13.42,35.03 12.59,53.69 0.1,88.96 -64.03,15.29 -61.06,-25.32 -57.2,-74.64zm0 0c-69.21,61 -54.27,68.91 -52.65,161.51 1,57.18 26.9,117.4 71.55,153.36l-3.62 -15.71 -22.31 -32.55 27.35 -17.68c65.75,-69.51 122.98,29.09 154.94,-61.95 -41.07,20.3 -70.97,45.87 -111.96,3.03 -11.24,-11.75 -52.57,-74.32 -55.68,-87.85 44.05,-29.95 42.86,20.24 70.09,-44.1 6.63,-64.7 8.36,-90.09 -60.79,-88.18l-16.92 30.12z"/>
   <path class="fil7" d="M3312.07 3173.13c17.44,-2.41 60.63,-112.38 121.68,-98.69 24.45,16.52 -1.07,211.89 -1.07,211.9 -48.03,-2.24 -29.99,-15.67 -89.36,2.03 -20.42,6.08 -54.73,19.65 -73.52,22.11 18.07,-32.03 17.96,-16.9 23.69,-59.1l-53.03 65.58c57.87,15.33 106.95,-21.04 180.42,-16.11 48.77,-10.56 28.75,-43.88 30.56,-91.83 1.95,-51.41 6.77,-88.23 2.46,-141.34l-16.19 -24.25c-23.17,-29.64 -117.1,-112.88 -149.09,-110.29 -2.67,32.75 25.15,49.17 29.36,97.94 3.66,42.43 1.86,100.33 -5.91,142.05z"/>
   <path class="fil7" d="M1969.52 2121.1l-9.46 14.52 -13.7 31.21 -58.32 127.6c80.24,12.04 83.71,-15.17 131.05,-72.21 20.68,-24.94 87.24,-95.61 95.44,-118.54 -30.24,-18.2 -78.67,-18.59 -114.43,-18.81l-30.58 36.23z"/>
   <path class="fil2" d="M2226.69 4334.79c-11.78,64.43 -77.45,126.46 -78.37,165.55 31.46,4.5 108.92,-6.56 139.97,-18.57 12.08,-45.58 -8.67,-65.85 16.62,-105.41l-8.51 -138.91 -28.35 2.61 -41.36 94.73z"/>
   <path class="fil1" d="M5263.37 492.39c-3.39,-33.08 3.29,-41.25 -4.23,-69.88 -8.29,-31.59 -10.95,-41.99 -15.24,-75.37l-124.38 -25.4 -25 124.67c29.73,23.15 127.74,37.24 168.85,45.98z"/>
   <path class="fil3" d="M5304.18 2991.82l-16.76 -75.08c47.87,5.72 37.7,74.77 111.4,52.59 23.15,-79.68 -166.13,-252.93 -249.76,-262.19 23.05,25.75 121.43,75.89 127.68,114.89l-49.09 -10.64c-5.23,32.71 54.78,154.58 76.53,180.43z"/>
   <path class="fil6" d="M4261.71 2939.73l-8.37 -0.71 -24.15 58.15 -35.92 -4.53 -9.42 6.53c32.5,42.43 23.3,48.32 40.66,91.5 15.62,38.83 37.61,40.36 59.58,74.52 49.86,3.35 92.67,1.67 110.15,-52.24 14.62,-41.92 0.79,-143.08 4.09,-197.47l-33.51 1.55c-26.02,81.28 51.77,174.71 -38.19,223.91 -33.59,-8.88 -70.35,-55.91 -69.92,-93.19 0.39,-34.03 71.17,-86.41 5,-108.02z"/>
   <path class="fil2" d="M1960.06 2135.62l9.46 -14.52c-3.26,-44.11 -0.52,-32.15 -32.08,-53.64 -40.08,-27.29 -7.46,-23.23 -45.07,-41.31 -22.26,-10.7 -104.48,-26.94 -126.54,-22.58 -51.86,139 109.36,131.82 194.23,132.05z"/>
   <path class="fil14" d="M4921.1 5364.81c-10.58,33.07 -18.53,33.55 -30.53,76.12 -35.4,125.56 -180.07,411.7 -255.47,461.85 -13.31,32.93 -37.89,37.95 -30.21,66 77.87,17.02 355.39,-518.07 326.08,-609.12l-9.87 5.15z"/>
   <path class="fil2" d="M1244.6 1684.91c32.51,12.79 111.13,58.27 115.87,94.22l29.82 1.41 14.32 31.29c37.22,-67.65 35.65,-46.49 -6.95,-110.4 -15.7,-23.56 -49.26,-85.66 -47.69,-111.02 23.59,12.58 2.06,19.89 37.47,22.24l0.53 -88.65 -143.37 160.91z"/>
   <path class="fil1" d="M1596.29 1630.38c-4.82,-35.02 9.95,-21.33 24.96,-61.4 9.7,-25.9 10.29,-42.79 39.2,-40.3 -1.16,28.51 -36.97,100.61 -64.16,101.7zm13.28 41.48c45.37,-16.15 63.21,-74.03 83.72,-115.19 25.16,-50.47 62.09,-93.67 16.58,-145.52 -50.61,-0.85 -75.58,76.49 -96.89,118.29 -25.89,50.78 -70.74,109.48 -3.41,142.42z"/>
   <path class="fil1" d="M1387.97 1524l-0.53 88.65c-35.41,-2.35 -13.88,-9.66 -37.47,-22.24 -1.57,25.36 31.99,87.46 47.69,111.02 42.6,63.91 44.17,42.75 6.95,110.4l-2.98 19.05c17.01,-20.03 17.88,-26.22 36.92,-45.32 44.71,-44.83 3.76,-17.72 33.46,-60.28l66.49 28.02 44.72 -49.86c-47.23,0.21 -97.34,-24.28 -137.91,-49.63 -49.4,-30.85 -34.57,-104.83 -30.91,-155.21l-26.43 25.4z"/>
   <path class="fil6" d="M7724.55 4143.03c70.09,23.93 210.12,-6.69 195.39,-99.79 -25.22,-9.2 -120.47,-13.68 -143.45,-0.59 -12.54,7.14 -49.88,82.74 -51.94,100.38z"/>
   <path class="fil5" d="M1818.81 1601.39l26.88 15.96c115.79,-96.79 199.05,-63.48 331.55,-28.2l-22.96 -54.11c-81.78,-26.57 -110.14,-44.75 -201.37,-21.06 -53.82,13.97 -113.36,31.29 -134.1,87.41z"/>
   <path class="fil9" d="M3545.69 4315.04c-7.72,119.15 274.82,63.91 240.72,-40.99 -56.44,-16.6 -45.29,19.77 -109.21,31.71 -54.78,10.24 -93.13,-17.26 -131.51,9.28z"/>
   <path class="fil3" d="M3429.04 3647.93c0.22,57.24 -17.96,77.44 41.2,120.77 23.54,17.24 99.05,65.12 122.49,62.1 -7.14,-40.41 -113.88,-85.12 -120.38,-132.36 -3.97,-28.9 63.58,-132.65 79.85,-176.69l-1.23 -61.22c-20.04,6.02 -29.69,67.81 -51.2,98.69 -18.21,26.13 -48.25,67.29 -70.73,88.71z"/>
   <path class="fil6" d="M3074.96 3004.22c-27.23,64.34 -26.04,14.15 -70.09,44.1 3.11,13.53 44.44,76.1 55.68,87.85 40.99,42.84 70.89,17.27 111.96,-3.03l4.61 -18.59 -10.98 -33.67c-31.66,16.86 -24.04,40.08 -49.77,38.52 -27.91,-1.7 -26.6,-26.46 -18.88,-46.28 14.29,-36.7 59.69,-95.82 9.56,-125.34 -25.35,15.25 -16.45,25.82 -32.09,56.44z"/>
   <path class="fil12" d="M3707.25 6519.37c31.47,49.17 96.57,70.07 152.53,62.6l83.12 -137.32c-61.7,-3.22 -75.63,15.34 -126.12,48.31 -52.99,34.59 -48.83,65.27 -109.53,26.41z"/>
   <path class="fil1" d="M2205.18 1674.53l39.36 49.03c65.51,-80.07 81.17,43.62 72.44,90.32 20.44,-24.64 79.56,-154.63 88.1,-188.24l-37.27 48.54 -56.37 -39.97c-48.47,15.29 -43.25,10 -94.72,13.46l-11.54 26.86z"/>
   <path class="fil15" d="M7987.7 3935.42c-19.59,-36.97 -11.49,-92.18 41.43,-77.2 18.4,41.65 14.63,85.16 -41.43,77.2zm-35.5 -116.14c-89.51,41.93 -26.54,184.48 62.16,131.06 81.44,-49.05 30.87,-174.65 -62.16,-131.06z"/>
   <path class="fil14" d="M7404.79 3779.91c-21.89,-76.21 59.99,-96.51 96.98,-63.86 38.49,33.99 19.93,126.6 -47.53,114.14 4.64,-33.22 39.41,-49.1 -5.04,-86.65 -43.7,9.51 -17.25,23.99 -44.41,36.37zm-27.8 -27.75c12.17,107.43 89.2,138.25 159.67,49.62 41.01,-116.05 -119.3,-171.89 -159.67,-49.62z"/>
   <path class="fil12" d="M3260.8 5511.76l-4.38 -50.38 -39.96 2.61c-32.59,30 -4.09,86.88 1.29,124.91 5.34,37.82 10.69,101.36 32.8,131.9 18.86,-31.63 8.27,-162.55 10.25,-209.04z"/>
   <path class="fil15" d="M1548.1 2461.46l43.69 -68.04c-27.78,-23.25 -152.67,-54.65 -191.81,-62.37 39.08,41.28 92.7,113.58 148.12,130.41z"/>
   <path class="fil10" d="M6818.57 4073.09c-0.75,33.16 9.97,84.54 35.76,105.44l0.92 -42.64c14.17,-9.01 33.29,-15.58 47.5,-26.23 38.25,-28.66 2.49,-24.88 48.65,-35.05l-81.01 -69.48 -51.82 67.96z"/>
   <path class="fil15" d="M7404.79 3779.91c27.16,-12.38 0.71,-26.86 44.41,-36.37 44.45,37.55 9.68,53.43 5.04,86.65 67.46,12.46 86.02,-80.15 47.53,-114.14 -36.99,-32.65 -118.87,-12.35 -96.98,63.86z"/>
   <path class="fil7" d="M4193.27 2992.64l35.92 4.53 24.15 -58.15c0.24,-31 3.54,-26.39 -14.02,-51.68 -26.2,-2.69 -54.28,5.06 -66.18,31.38 -16.72,36.99 2.01,47.34 20.13,73.92z"/>
   <path class="fil10" d="M3595.33 3998.77c96.08,30.77 60.91,-130.14 10.08,-121.1 -23.33,26.24 -29.4,91.06 -10.08,121.1z"/>
   <path class="fil6" d="M5653.63 8068.73l70.6 -25.4c16.89,-42.59 25.53,-53 26.51,-103.72l-23.84 -13.83c-24.08,42.35 -60.47,95.94 -73.27,142.95z"/>
   <path class="fil0" d="M4429.92 3012.32c52.53,21.37 105.82,10.23 82.59,-56.79 -48.11,-17.58 -100.97,-3.3 -82.59,56.79z"/>
   <path class="fil1" d="M2997.25 2946.16c-3.86,49.32 -6.83,89.93 57.2,74.64 12.49,-35.27 13.32,-53.93 -0.1,-88.96 -33.68,-8.8 -30.58,-9.36 -57.1,14.32z"/>
   <polygon class="fil13" points="1193.8,1750.39 1258.24,1811.41 1292.6,1774.27 1218.57,1718.74 "/>
   <path class="fil6" d="M7987.7 3935.42c56.06,7.96 59.83,-35.55 41.43,-77.2 -52.92,-14.98 -61.02,40.23 -41.43,77.2z"/>
   <path class="fil13" d="M3134.97 3286.06c23.67,15.09 21.62,14.57 46.92,5.51 14.17,-33.83 -3.58,-85.3 -49.98,-71.37l3.06 65.86z"/>
   <path class="fil0" d="M4421.07 2901.82c30.82,-12.4 52.8,-45.62 46.25,-79.42 -43.07,-8.4 -90.68,51.55 -46.25,79.42z"/>
   <path class="fil1" d="M1430.87 1480.3c22.16,21.59 18.82,28.4 48.87,34.48 17.77,-26 13.32,-67.86 18.48,-100.84l-67.35 66.36z"/>
   <path class="fil6" d="M4103.16 2785.29l-4.21 42.24c33.2,7.84 59.9,-58.08 52.33,-88.55l-28.61 2.8 -19.51 43.51z"/>
   <path class="fil15" d="M1596.29 1630.38c27.19,-1.09 63,-73.19 64.16,-101.7 -28.91,-2.49 -29.5,14.4 -39.2,40.3 -15.01,40.07 -29.78,26.38 -24.96,61.4z"/>
   <path class="fil13" d="M3012.53 3245.32l30.89 4.71c16.05,-26.84 15.35,-24.17 6.99,-51.76l-32.84 -3.18 -27.35 17.68 22.31 32.55z"/>
   <path class="fil0" d="M3245.87 2967.46l-41.8 -3.83c-14.97,36.88 -17.1,33.03 5.04,59.92l23 -0.21 13.76 -55.88z"/>
   <path class="fil10" d="M3776.05 3753.1c28.56,8.63 70.43,-19.54 70.3,-47.62 -23.99,-3.5 -70.43,19.24 -70.3,47.62z"/>
   <path class="fil13" d="M3198.23 3133.2c10.32,29.77 13.33,28.41 44.39,23.74l5.06 -40.72c-25.25,-2.88 -36.59,-1.29 -49.45,16.98z"/>
  </g>
 </g>
</svg>
