<?xml version="1.0" standalone="no"?>
<!DOCTYPE svg PUBLIC "-//W3C//DTD SVG 20010904//EN"
 "http://www.w3.org/TR/2001/REC-SVG-20010904/DTD/svg10.dtd">
<svg version="1.0" xmlns="http://www.w3.org/2000/svg"
 width="226.000000pt" height="49.000000pt" viewBox="0 0 226.000000 49.000000"
 preserveAspectRatio="xMidYMid meet">

<g transform="translate(0.000000,49.000000) scale(0.100000,-0.100000)"
fill="#000000" stroke="none">
<path d="M1105 401 c-3 -6 -32 -11 -65 -11 -43 0 -59 -4 -64 -16 -9 -24 -7
-31 5 -11 7 13 23 17 62 17 51 0 88 13 75 25 -3 4 -9 2 -13 -4z"/>
<path d="M1155 400 l-30 -6 28 -6 c15 -3 30 -1 33 4 9 13 3 15 -31 8z"/>
<path d="M161 362 c26 -52 37 -163 17 -179 -12 -10 -13 -7 -10 20 2 18 -1 57
-6 87 l-10 55 -1 -67 c-1 -64 -2 -68 -27 -74 -42 -11 -69 24 -69 90 0 33 6 61
15 73 8 10 5 8 -7 -5 -13 -13 -23 -32 -23 -42 0 -10 -5 -22 -11 -26 -14 -8 -4
-81 14 -103 7 -8 31 -23 54 -33 39 -17 45 -17 72 -4 56 30 60 116 8 207 -28
50 -40 51 -16 1z"/>
<path d="M1250 310 c-2 -74 -4 -79 -9 -38 -4 26 -9 49 -12 52 -10 10 -8 -137
2 -156 12 -22 45 -24 53 -2 5 14 4 15 -9 4 -12 -10 -16 -9 -21 5 -4 10 -2 26
4 36 14 21 15 86 3 144 -8 35 -9 29 -11 -45z"/>
<path d="M1328 373 c19 -35 14 -69 -15 -104 l-28 -33 35 26 c32 24 35 31 32
67 -2 22 -11 46 -20 53 -13 11 -14 10 -4 -9z"/>
<path d="M1763 373 c9 -2 17 -11 17 -18 0 -9 -7 -12 -17 -9 -17 5 -17 5 0 -6
9 -6 22 -8 27 -5 15 9 -8 45 -28 44 -16 -1 -16 -2 1 -6z"/>
<path d="M1150 352 c6 -13 14 -21 18 -18 3 4 -2 14 -12 24 -18 16 -18 16 -6
-6z"/>
<path d="M1006 345 c-9 -26 -7 -32 5 -12 6 10 9 21 6 23 -2 3 -7 -2 -11 -11z"/>
<path d="M1056 341 c15 -16 30 -22 53 -19 30 3 31 4 17 23 -13 16 -15 17 -10
3 8 -23 -22 -24 -56 -2 l-25 17 21 -22z"/>
<path d="M459 293 c-6 -16 -13 -43 -16 -60 -3 -18 -10 -33 -15 -33 -6 0 -8 15
-4 38 5 27 4 33 -3 22 -12 -17 -14 -70 -5 -94 9 -23 51 -20 57 3 3 14 1 18 -9
14 -17 -6 -18 21 -3 66 7 20 18 31 30 31 21 0 26 -24 8 -36 -8 -5 -8 -9 1 -14
9 -6 9 -12 0 -30 -9 -16 -9 -21 0 -15 6 4 19 0 28 -8 20 -17 48 -28 55 -21 2
3 -8 18 -24 34 -24 24 -29 35 -25 64 8 63 -54 94 -75 39z"/>
<path d="M849 293 c-6 -16 -13 -45 -16 -65 -3 -21 -10 -35 -15 -32 -5 3 -6 22
-3 42 5 28 4 33 -4 22 -12 -16 -14 -69 -5 -94 9 -23 51 -20 57 3 3 14 1 18 -9
14 -17 -6 -18 21 -3 66 7 20 18 31 30 31 16 0 18 -6 15 -42 -3 -34 0 -46 17
-58 56 -40 83 -30 36 14 -24 23 -28 34 -24 64 5 42 -8 62 -41 62 -17 0 -28 -8
-35 -27z"/>
<path d="M1040 310 c0 -5 -14 -26 -32 -47 l-32 -38 30 28 c27 24 32 26 50 13
18 -14 16 -16 -36 -40 -66 -31 -49 -35 20 -5 l49 21 30 -21 c16 -12 40 -21 53
-21 17 1 11 6 -24 22 -50 21 -58 37 -33 58 24 20 18 26 -20 22 -21 -3 -35 0
-35 7 0 6 -4 11 -10 11 -5 0 -10 -4 -10 -10z m60 -29 c0 -19 -22 -23 -38 -7
-15 15 -14 16 11 16 15 0 27 -4 27 -9z"/>
<path d="M1640 310 c0 -5 -7 -10 -15 -10 -30 0 -18 -56 18 -84 24 -20 28 -26
14 -26 -10 0 -27 4 -37 10 -15 8 -17 6 -13 -10 7 -26 37 -42 71 -38 21 2 28 9
30 30 2 20 -6 33 -38 59 -44 36 -42 62 5 41 20 -9 25 -9 25 1 0 7 -5 18 -12
25 -15 15 -48 16 -48 2z"/>
<path d="M2170 310 c0 -5 -7 -10 -15 -10 -30 0 -18 -56 18 -84 24 -20 28 -26
14 -26 -10 0 -27 5 -37 10 -17 9 -19 8 -11 -12 9 -24 59 -45 85 -35 29 11 19
54 -19 84 -49 39 -45 70 6 43 22 -12 27 8 7 28 -15 15 -48 16 -48 2z"/>
<path d="M621 294 c0 -11 3 -14 6 -6 3 7 2 16 -1 19 -3 4 -6 -2 -5 -13z"/>
<path d="M663 300 c-13 -5 -23 -18 -23 -28 0 -15 7 -18 37 -18 35 1 36 -1 47
-44 7 -29 17 -46 29 -48 38 -8 12 126 -28 142 -21 8 -35 7 -62 -4z"/>
<path d="M1480 302 c0 -4 10 -12 22 -17 32 -15 34 -33 3 -28 -14 3 -25 10 -25
16 0 7 -4 7 -12 -1 -9 -9 -8 -15 8 -27 26 -20 48 -19 67 3 21 23 21 27 1 46
-16 16 -64 22 -64 8z"/>
<path d="M1875 300 c-3 -5 -13 -6 -21 -3 -14 5 -15 -2 -9 -53 9 -78 14 -96 28
-91 7 2 12 27 12 63 0 57 1 59 27 59 34 1 47 13 28 25 -20 13 -57 13 -65 0z"/>
<path d="M2010 302 c0 -4 10 -12 22 -17 31 -14 35 -35 6 -28 -13 4 -26 11 -31
17 -4 7 -9 2 -13 -11 -4 -13 -11 -23 -16 -23 -6 0 -7 8 -3 18 4 11 3 14 -4 7
-5 -5 -13 -22 -16 -37 -10 -40 34 -83 77 -74 36 7 58 23 58 42 0 10 -8 10 -32
3 -44 -12 -46 -12 -58 11 -15 28 -4 43 20 27 22 -13 46 -4 64 27 9 13 7 20 -8
32 -21 15 -66 19 -66 6z"/>
<path d="M250 293 c0 -31 25 -85 46 -102 l25 -20 -25 -72 c-14 -40 -23 -75
-21 -78 7 -6 53 100 57 131 2 15 8 31 12 35 5 4 6 -8 2 -27 -4 -25 -3 -31 4
-20 6 8 8 31 4 51 -3 25 -1 41 9 51 10 10 12 20 6 29 -5 8 -9 10 -9 4 0 -5 -9
-21 -19 -34 l-19 -24 -26 41 c-24 38 -46 54 -46 35z"/>
<path d="M1366 268 c-10 -18 -31 -46 -45 -62 l-26 -28 30 15 c50 25 80 63 69
87 -9 20 -10 19 -28 -12z"/>
<path d="M1429 243 c-22 -58 39 -109 97 -82 16 8 30 22 32 31 3 15 -1 16 -30
7 -45 -13 -47 -12 -60 16 -6 13 -15 22 -21 18 -6 -4 -8 2 -5 15 9 31 0 27 -13
-5z"/>
<path d="M1791 230 l-3 -45 -13 40 c-11 35 -13 37 -14 13 -1 -15 4 -39 9 -54
16 -41 32 -16 27 42 l-3 49 -3 -45z"/>
<path d="M613 206 c3 -64 21 -69 34 -11 10 44 0 64 -14 28 -6 -15 -8 -14 -14
7 -5 18 -7 10 -6 -24z"/>
</g>
</svg>
