<?xml version="1.0" encoding="UTF-8"?>
<!DOCTYPE svg PUBLIC "-//W3C//DTD SVG 1.1//EN" "http://www.w3.org/Graphics/SVG/1.1/DTD/svg11.dtd">
<!-- Creator: CorelDRAW -->
<svg xmlns="http://www.w3.org/2000/svg" xml:space="preserve" width="95.6732mm" height="20.7432mm" version="1.1" style="shape-rendering:geometricPrecision; text-rendering:geometricPrecision; image-rendering:optimizeQuality; fill-rule:evenodd; clip-rule:evenodd"
viewBox="0 0 9567.32 2074.32"
 xmlns:xlink="http://www.w3.org/1999/xlink"
 xmlns:xodm="http://www.corel.com/coreldraw/odm/2003">
 <defs>
  <style type="text/css">
   <![CDATA[
    .fil10 {fill:#09502C}
    .fil15 {fill:#296B16}
    .fil18 {fill:#2A1949}
    .fil4 {fill:#484B5E}
    .fil6 {fill:#637412}
    .fil17 {fill:#704D75}
    .fil1 {fill:#7B3535}
    .fil13 {fill:#7DAD83}
    .fil12 {fill:#98B3A6}
    .fil14 {fill:#A8AE73}
    .fil8 {fill:#AB8389}
    .fil3 {fill:#AD5123}
    .fil7 {fill:#B46847}
    .fil11 {fill:#BBB4C4}
    .fil9 {fill:#CBA39A}
    .fil5 {fill:#D78B58}
    .fil2 {fill:#E76802}
    .fil16 {fill:#F6BA87}
    .fil0 {fill:#FEFDFD}
   ]]>
  </style>
 </defs>
 <g id="Camada_x0020_1">
  <metadata id="CorelCorpID_0Corel-Layer"/>
  <g id="_2020116858112">
   <path class="fil0" d="M6075.18 1054.43c2.69,-11.73 80.42,-72.18 50.31,20 -28.28,86.41 -51.45,-14.93 -50.31,-20zm-4887.69 41.29l0 -191.2c33.53,-147.75 132.92,-263.09 158.77,-345.09 153.52,-486.4 508.39,92.81 526.15,308.21 130.82,-36 68.72,-100.9 192.3,-9.86 56.92,41.92 84.02,102.7 127.01,157.49 88.43,-56.33 32.61,-92.26 134.65,-130.9 188.41,-71.37 29.56,18.56 148.18,25.07 133.88,-155.09 154.22,-135.2 362.92,-135.2 108.99,166.02 61.92,3.82 95.64,215.66 18.97,119.13 10.08,128.29 82.7,219.55l39.6 -435.21c36.11,0.77 372.85,38.31 392.11,43.72 135.43,38.13 124.58,120.53 199.37,205.32 57.36,-236.76 184.33,-249.04 404.73,-249.04 108.95,165.94 93.39,26.92 103.29,293.46l145.75 -106.67c-74.16,-112.51 -104.61,-125.13 -186.79,-217.93 154.99,-305.93 53.65,-300.34 359.83,-356.45 111.67,-20.45 221.1,-86.01 282.25,-63.1 140.79,52.73 31.29,122.48 65.96,193.63 205.03,-118.47 275.71,-214.44 525.3,-42.36 308.35,212.57 160.32,328.58 269.01,478.2 155.76,-180.25 274.23,-253.57 498.12,-31.15 110.35,-127.7 226.07,-187.56 427.82,-85.38 0.33,175.03 -42.17,184.92 -32.57,242.28 0.55,3.38 3.53,11.58 4.63,14.93 26.51,82.07 59.09,-25.37 59.09,272.02 -210.69,137.82 -266.58,69.31 -466.98,-62.25 -451.98,295.6 -484.15,10.26 -583.51,-147.67l-378.91 306c-149.73,-40.78 -152.67,-54.27 -220.58,-189.47 -475,0 -164.22,-221.32 -519.86,-53.95 -207.09,97.52 -28.46,-11.25 -120.46,131.86 -96.89,150.69 -177.34,66.96 -291,-18.31 -97.88,38.32 -128.32,138.48 -265.22,99.39 -140.83,-40.23 4.16,-41.73 -123.91,-37.76 -4.71,0.14 -236.99,136.89 -236.18,-308.03 -129.28,49.06 -81.37,182.02 -155.64,342.48 -170.07,-3.6 -290.6,10.88 -433.19,-96.08 -75.42,29.12 -143.52,125.02 -247.61,109.13 -111.27,-16.98 -110.28,-128.51 -159.77,-199.84 -3.05,147.85 -153.22,664.84 -379.65,566.4 -49.6,-113.14 36.85,-223.26 75.78,-346 51.52,-162.45 -2.5,-164.91 -107.58,-307.07 -85.24,99.39 -122.89,267.87 -315.97,292.21 -118.99,15.01 -308.13,-73.21 -382,-185.72 -38.1,-57.99 -61.3,-113.11 -73.58,-165.32zm3118.21 -48.32c-36.44,60.71 58.65,31.52 -79.86,55.27l79.86 -55.27zm586.48 -366.56l31.15 0 0 435.84 -214.78 -58.24c39.57,-204.37 183.63,-116.46 183.63,-377.6zm-563.46 349.8l-23.02 16.76 23.02 -16.76zm1464.66 60.67l-13.39 67.84c50.16,107.88 110.65,62.76 243.83,29.41l67.73 -45.63 -49.5 70.31c-68.46,265.29 -538.64,175.13 -388.47,-196.65 25.74,-84.06 3.71,-110.02 125.46,-82.4l13.24 -69.46c116.92,-34.42 193.77,-7.28 251.61,96.3 -15.7,142.15 -103.95,200.1 -250.51,130.28zm-2513.67 -43.13c0,62.21 16.47,47.14 -41.89,51.95l-34.34 37.47 -27.65 216.36c-133.22,-28.5 -98.03,-114.4 -91.67,-244.16 -0.11,-121.12 -15.85,-183.88 41.48,-282.39l70.38 72.18c238.89,-57.07 253.6,-76.12 375.46,135.05 20.77,142.97 67.84,225.15 -49.09,318.14 -52.95,-38.65 -43.43,30.74 -79.98,-118.69 -11.07,-45.27 -13.57,-103.88 -18.16,-150.76 -74.98,-65.78 -42.36,-59.86 -144.54,-35.15zm-987.72 35l12.65 19.53c57.1,104.79 33.64,225.95 -29.82,323.76l-98.69 250.51 -50.97 -19.93 -106.74 117.15 150.46 -456.61 -107.48 -147.15c-93.06,-61.08 -107.14,-181.1 -81.22,-287.14 106.15,41.88 132.85,123.44 178.26,234.89 12.61,7.98 61.74,30.66 61.96,30.85l52.36 -108.48 61.37 -89.24c44.6,-20.62 -84.91,-46.51 61.51,-12.98l-11.43 72.96 -26.4 65.56 -65.82 6.32zm-730.92 -371.23l40.27 435.1c-137.3,-10.77 -172.71,-68.13 -181.79,-193.12 -11.59,-159.61 4.08,-208.85 141.52,-241.98zm4794.15 311.41c60.75,121.41 199.85,116.7 142.34,328.02 -83.43,41.74 -118.03,34.42 -217.24,-4.34 -137.22,-53.64 -67.95,-15.84 -118.47,-164.06l208.19 54.86 -164.98 -182.53 -29.86 -97.29 51.55 -53.39 79.53 -70.16c152.31,-17.91 177.82,17.39 173.37,159.21 -112.66,-40.48 -102.47,-75.85 -183.55,-3.01l59.12 32.69zm-2269.11 25.77l81.67 187.93c43.75,106.56 45.7,13.28 48.49,106.75 -111.19,22.83 -156.75,-7.91 -213.85,-101.97 -7.28,3.72 -18.53,7.73 -22.65,9.2 -3.68,1.32 -16.44,6.21 -20.44,7.57 -3.35,1.14 -14.09,4.34 -17.1,5.33 -146.9,48.28 111.23,-82.91 -25.56,10.59l-50.08 68.98c-107.51,50.12 -53.06,33.83 -149.91,13.39 -62.4,-110.72 -80.45,-318.87 34.67,-388.26l2.28 126.9 20.01 24.96 -1.99 -20.22c7.14,-29.71 46.85,-221.83 49.16,-224.92 49.86,-66.81 160.69,-45.67 245.37,-12.06l19.93 185.83zm-1219.52 2.39c62.77,72.59 51.48,84.94 81.82,188.52 43.53,100.79 47.43,24.2 49.71,99.17 -90.09,29.2 -141.42,8.97 -186.35,-63.76 -22.94,-0.51 -97.26,-8.57 -105.27,-8.46 -7.98,0.12 -44.2,7.06 -63.76,13.68l-0.15 81.15 -142.01 -2.13c-58.2,-108.32 -79.23,-329.38 34.46,-385.83l-13.35 131.9 32.54 3.38 29.75 -90.93 30.37 -169.44 205.77 2.54c65.3,91.41 39.27,79.13 46.47,200.21zm1648.96 -371.89c93.83,49.46 20.18,-44.2 81.7,85.6 -105.9,-47.4 -58.61,18.39 -81.7,-85.6zm-2703.15 162.97c49.23,111.48 73.54,231.9 35.7,343.65 -44.45,177.23 -159.1,213.41 -333.14,187.05l-38.35 -34.02c-220.14,-88.5 -126.04,-35.63 -219.37,-222.82 -9.89,-167.6 34.05,-475.95 225.92,-513.35 0.33,150.21 -26.48,-11.73 -97.33,151.49 -32.1,73.91 -27.76,160.65 -19.2,236.84l62.07 205.65c119.17,-2.24 140.61,35.45 219.3,-58.53l11.25 -299.75 -51.18 -161.75 -40.78 -115.83c-13.31,-1.32 -96.12,-5.74 -97.3,-5.96 -90.93,-18.27 -14.7,5 -63.28,-29.23 161.02,-220.18 350.13,153.22 405.69,316.56zm3199.43 -338.14c19.82,-81.78 -19.41,-32.76 36.22,-77.99l97.26 38.24c177.74,32.61 284.63,120.68 346.55,281.99 32.95,97.37 66.85,232.79 46.78,334.09l-88.18 39.93c-70.78,90.75 -66.55,90.27 -158.44,109.69 -98.29,153.4 -57.58,-15.41 -129.21,157.23l-122.19 -22.73c-74.05,-163.4 -54.05,-104.2 -61.66,-289.38 -0.63,-148.29 -29.09,-375.53 48.24,-484.44l-53.28 -82.07 37.91 -4.56zm-351.59 43.83c92.36,66.77 114.61,41.81 234.33,9.26 -9.45,101.42 45.16,40.93 -61.7,113.48l-1.62 71.15c-14.23,67.58 19.71,29.3 -29.3,58.2l-77.62 -112.62 21.8 3.38 58.13 -6.4 5.15 -48.72c-107.88,-2.39 -200.03,-2.9 -293.86,43.61l-10.59 -0.22c-82.63,-11.91 -67.04,-31.4 -55.89,48.98 100.82,61.77 70.7,62.03 202.93,69.27l7.91 -101.67 74.9 124.47 -30.16 112.26 -65.85 73.58 -15.77 67.39 162.37 57.88 130.57 22.87c15.41,105.13 15.26,25.15 -36.99,51.52 -201.13,8.93 -161.05,-46.92 -329.24,-121.31 -128.69,77.11 -190.76,106.67 -343.21,121.12l294.46 -167.93c-82.63,-76.74 -85.02,-50.74 -172.27,-7.2l11.98 -61.34 67.29 -28.49 26.99 -104.13c104.5,41.29 -2.72,4.41 68.1,39.49 35.41,17.54 9.89,11.98 62.44,20.26l17.02 -59.35c-105.86,-24.71 -85.23,-7.06 -142.3,-107.77l-85.12 9.92 -21 100.28 -57.32 20.84c-38.54,-159.25 -13.31,-29.26 13.09,-82.58l50.23 -47.65c-29.02,-45.16 53.68,-39.5 -64.79,-34.35l-97.19 65.38 68.32 -161.13 152.12 13.5 -19.71 -91.49 -89.24 -27.98c-4.93,-56.33 -13.86,-37.39 50.82,-29.75l412.74 -78.87c-32.39,115.39 -28.72,-19.85 -28.5,125.72l-64.45 37.14z"/>
   <path class="fil0" d="M6660.2 1017.69c39.12,-63.61 83.13,-116.04 125.75,-9.78 14.56,125.32 32.91,217.57 -31.33,320.64 -105.93,-73.06 -83.83,-186.28 -94.42,-310.86zm1563.09 159.03l0 189c-207.97,136.01 -234.15,90.57 -466.98,-62.25 -345.38,225.95 -534.75,95.9 -553.17,-128.58 -11.36,-138.52 80.6,-107.96 -100.6,-151.61 0.18,212.28 145.2,398.92 -155.65,404.73 -84.64,-167.05 -62.29,-150.09 -62.29,-342.48l-31.1 0c0,152.93 2.28,172.64 -31.15,311.34 -166.05,-3.2 -201.09,-67.44 -217.27,-221.76 -33.28,-317.62 83.21,-271.81 123.88,-276.37 -75.09,-66.26 -333.51,-187.97 -131.6,-320.63 173.84,-114.28 255.99,108.18 256.14,258.38 107.44,-51.48 31.91,-11.84 130.75,-22.8l41.07 -4.26c5.52,-0.77 14.6,-2.8 20.12,-3.64 139.91,-21.55 148.11,-22.76 275.04,61.85 197.89,-129.44 262.64,-125.76 443.85,54.23 110.34,-127.7 226.1,-187.56 427.82,-85.38 0.33,176.35 24.45,117.52 -62.26,249.04 57.44,37.58 82.99,62.15 93.4,91.19zm-498.12 -122.29c8.89,-8.79 112.03,8.49 64.64,43.75 -41.99,31.26 -67.44,-41 -64.64,-43.75zm-279.2 35.26l-27.06 53.87 29.27 80.52 227.31 -34.71 67.47 -46.58 -48.53 76.29c-79.9,268.39 -559.79,144.84 -390.02,-200.1 29.34,-97.18 21.18,-114.1 126.6,-83.5l12.39 -69.39c114.98,-36.4 150.5,-9.19 247.42,59.31 -1.36,120.13 5.41,101.45 -93.1,199.96l-151.75 -35.67zm-399.06 23.13c16.32,135.9 62.98,148 -9.86,248.71 -122.41,-51.7 -90.49,-112.55 -99.35,-251.07l-29.49 -210.14c231.98,-72.07 286.47,-66.51 347,29.57 -83.65,149.91 -198.16,-93.84 -208.3,182.93zm909.54 -85.42c155.5,55.52 242.5,155.39 190.36,326.04 -121.86,42.21 -166.39,18.86 -289.82,-32.28l-45.08 -138.66 209.81 55.85 -164.77 -182.49 -28.94 -94.9c99.35,-155.61 310.71,-229.56 304.24,31.51l-177.2 -40.41 1.4 75.34zm-1102.95 -190.91l0 93.4c-156.64,-43.1 -92.3,-46.81 0,-93.4zm-220.48 -192.01c126.64,-44.93 148.33,42.03 152.19,156.56 -116.67,2.73 -90.56,19.16 -158.55,-55.74 -71.19,-48.83 -54.93,-56.37 6.36,-100.82z"/>
   <path class="fil1" d="M1720.88 1267.8c18.79,62.73 26.88,43.36 -42.88,43.36 0,-158.3 -20.22,0.11 42.88,-43.36zm-463.64 -151.34c93.33,187.19 -0.77,134.32 219.37,222.82l41.52 -33.2 -3.17 67.22c174.04,26.36 288.69,-9.82 333.14,-187.05 -35,-70.71 35.67,-55.19 -78.43,-53.54 0.55,65.6 10.41,31.14 -7.91,92.37 -20.07,67.07 -7.13,20.99 -40.88,42.72l-0.59 -130.02 -72.29 0.78c-78.69,93.98 -100.13,56.29 -219.3,58.53l-62.07 -205.65 -109.39 125.02z"/>
   <path class="fil2" d="M5011.83 504.46l-37.91 4.56 53.28 82.07 5.08 121.71 37.06 -115.64 30.26 362.88 45.12 0.4 -30.04 -378.47c203.63,0.11 214.26,107.18 247.2,278.61 57.29,115.2 -3.93,-4.67 32.87,-116.93 29.97,-91.38 -5.92,-18.17 53.87,-93.8l6.88 98.98 -6.58 31.18c51.77,0 40.15,14.09 42.94,-33.31 -61.92,-161.31 -168.81,-249.38 -346.55,-281.99 -44.64,9.45 -43.76,9.49 -82,20.44 -6.32,1.84 -21.33,16.95 -26.11,9.16 -4.7,-7.69 -16.95,6.69 -25.37,10.15z"/>
   <path class="fil1" d="M7856.95 1055.86l164.77 182.49 -209.81 -55.85 45.08 138.66c123.43,51.14 167.96,74.49 289.82,32.28 52.14,-170.65 -34.86,-270.52 -190.36,-326.04 -108.88,48.06 -33.68,20.41 -99.5,28.46z"/>
   <path class="fil1" d="M6205.06 1055.31l164.98 182.53 -208.19 -54.86c50.52,148.22 -18.75,110.42 118.47,164.06 99.21,38.76 133.81,46.08 217.24,4.34 57.51,-211.32 -81.59,-206.61 -142.34,-328.02 -66.22,64.64 -39.56,58.06 -150.16,31.95z"/>
   <path class="fil1" d="M7694.43 1219.08l-18.94 -29.71 -227.31 34.71 -29.27 -80.52c-117.11,-85.57 -53.35,1.73 -114.5,-124.58 -169.77,344.94 310.12,468.49 390.02,200.1z"/>
   <path class="fil1" d="M6042.05 1213.24l-18.23 -24.68c-133.18,33.35 -193.67,78.47 -243.83,-29.41l-126.41 -142.56c-150.17,371.78 320.01,461.94 388.47,196.65z"/>
   <path class="fil0" d="M5172.37 649.7c142.34,54.49 178.19,206.5 31.14,311.33 0,-123.25 19.2,-202.97 -31.14,-311.33zm-27.65 310.74l-0.7 114.17 65.41 21.66c17.65,-89.39 -20.4,-14.93 22.76,-74.35 32.88,-45.3 13.65,-20.44 44.86,-31.69l84.83 -129.65c-32.94,-171.43 -43.57,-278.5 -247.2,-278.61l30.04 378.47z"/>
   <path class="fil3" d="M3196.02 899.59c1.21,25.55 8.12,108.29 6.39,129.36 -6.25,74.71 -6.36,63.28 -29.04,110.45l30.11 -1.8 34.34 -37.47c-41.8,-41.73 -75.78,74.46 -16.73,-77.88l58.62 25.93c102.18,-24.71 69.56,-30.63 144.54,35.15 150.09,17.65 116.04,25.11 147.23,-48.69 -121.86,-211.17 -136.57,-192.12 -375.46,-135.05z"/>
   <path class="fil3" d="M3771.65 1100.28l35.41 31.66c73.47,-123.7 31.77,-163.52 184.18,-157.97l-46.77 80.6c-2.24,78.03 -25.33,67.04 41.81,60.31l68.06 -4.08 31.77 -61.67 -19.93 -185.83c-84.68,-33.61 -195.51,-54.75 -245.37,12.06 -2.31,3.09 -42.02,195.21 -49.16,224.92z"/>
   <path class="fil4" d="M4328.72 1030.64c87.25,-43.54 89.64,-69.54 172.27,7.2l-294.46 167.93c152.45,-14.45 214.52,-44.01 343.21,-121.12 168.19,74.39 128.11,130.24 329.24,121.31l-93.58 -74.39 -162.37 -57.88 15.77 -67.39 -8.2 -37.29 -124.87 21.22 14.63 -70.01 -112.37 20.59 -67.29 28.49 -11.98 61.34z"/>
   <path class="fil1" d="M2158.44 1118.19l-97.04 52.25 107.48 147.15 -150.46 456.61 106.74 -117.15 98.95 -285.63c-2.68,-105.53 0.92,-174.29 80.53,-268.71l-12.65 -19.53 -19.23 -42.62 -52.36 108.48c-0.22,-0.19 -49.35,-22.87 -61.96,-30.85z"/>
   <path class="fil3" d="M5885.23 954.08l68.61 111.49c-118.58,-92.99 -52.95,-14.53 -158.92,-85.01l36.96 -44.64 53.35 18.16zm-106.19 -19.89l-43.61 91.08c4.6,4.56 10.74,7.98 12.8,18.02 2.05,9.81 12.02,14.96 14.52,17.61l30.63 30.41c146.56,69.82 234.81,11.87 250.51,-130.28 -57.84,-103.58 -134.69,-130.72 -251.61,-96.3l-13.24 69.46z"/>
   <path class="fil3" d="M6937.7 1110.46l109.21 2.36c10.14,-276.77 124.65,-33.02 208.3,-182.93 -60.53,-96.08 -115.02,-101.64 -347,-29.57l29.49 210.14z"/>
   <path class="fil3" d="M7536.83 950.66l68.06 113.18c-120.35,-90.75 -57.36,-11.55 -158.22,-85.6 45.04,-51.33 4.34,-44.82 90.16,-27.58zm-105.82 -15.18l-2.03 140.49c2.58,2.43 11.11,9.45 16.99,13.72l151.75 35.67c98.51,-98.51 91.74,-79.83 93.1,-199.96 -96.92,-68.5 -132.44,-95.71 -247.42,-59.31l-12.39 69.39z"/>
   <path class="fil3" d="M2583.98 1018.21l30.04 15.77c102.33,-90.05 16.99,-71.44 151.16,-63.09l-48.79 148.07 54.56 -3.9 65.49 -1.84 30.15 -61.7c-7.2,-121.08 18.83,-108.8 -46.47,-200.21l-205.77 -2.54 -30.37 169.44z"/>
   <path class="fil0" d="M5364.6 1001.29l-63.02 90.83 -92.15 4.15c-17.65,49.57 64.9,12.32 -65.3,55.08l-59.09 27.99 1.84 121.04 54.09 22.06 121.56 -104.2 123.84 -126.71c57.73,-121.12 134.54,-177.93 62.55,-311.52l6.58 -31.18 -22.14 205.47 -68.76 46.99z"/>
   <path class="fil5" d="M4978.96 1075.53l47.21 -52.61 33.5 117.88 39.93 -180.76 -30.26 -362.88 -37.06 115.64 -5.08 -121.71c-77.33,108.91 -48.87,336.15 -48.24,484.44z"/>
   <path class="fil1" d="M2642.74 1280.67c-49.86,-23.6 -29.05,-13.93 -53.39,-38.38l24.67 -208.31 -30.04 -15.77 -29.75 90.93 -28.05 112.08c-34.2,-74.9 -53.61,11.39 -4.49,-115.46l13.35 -131.9c-113.69,56.45 -92.66,277.51 -34.46,385.83l142.01 2.13 0.15 -81.15z"/>
   <path class="fil1" d="M4978.96 1075.53c7.61,185.18 -12.39,125.98 61.66,289.38l122.19 22.73 -21.84 -65.2 -54.09 -22.06 -1.84 -121.04 59.09 -27.99 -0.11 -76.74 0.7 -114.17 -45.12 -0.4 -39.93 180.76 -33.5 -117.88 -47.21 52.61z"/>
   <path class="fil6" d="M4615.97 583.99c-42.62,59.16 -18.17,34.86 -119.21,26.22l-42.33 2.24 -55.85 1.07 -152.12 -13.5 -68.32 161.13 97.19 -65.38c53.42,-79.05 168.29,-46.44 229.63,-16.36l10.59 0.22c93.83,-46.51 185.98,-46 293.86,-43.61l-5.15 48.72 28.61 -13.71c106.86,-72.55 52.25,-12.06 61.7,-113.48 -119.72,32.55 -141.97,57.51 -234.33,-9.26l-8.61 7.87 -35.66 27.83z"/>
   <path class="fil3" d="M6226.75 904.63l-51.55 53.39 29.86 97.29c110.6,26.11 83.94,32.69 150.16,-31.95l-59.12 -32.69c81.08,-72.84 70.89,-37.47 183.55,3.01 4.45,-141.82 -21.06,-177.12 -173.37,-159.21 -42.65,94.72 14.68,41.03 -79.53,70.16z"/>
   <path class="fil3" d="M7856.95 1055.86c65.82,-8.05 -9.38,19.6 99.5,-28.46l-1.4 -75.34 177.2 40.41c6.47,-261.07 -204.89,-187.12 -304.24,-31.51l28.94 94.9z"/>
   <path class="fil1" d="M3866.59 1343.51l-12.65 -83.87c-60.34,-5.81 -13.79,19.71 -43.24,-18.53l-3.64 -109.17 -35.41 -31.66 1.99 20.22 -27.84 105.02c-57.47,-94.1 -32.06,-81.74 7.83,-129.98l-2.28 -126.9c-115.12,69.39 -97.07,277.54 -34.67,388.26 96.85,20.44 42.4,36.73 149.91,-13.39z"/>
   <path class="fil7" d="M4340.45 464.3c48.61,23.87 9.93,1.14 38.42,57.73l19.71 91.49 55.85 -1.07c-1.32,-15.52 -8.71,-66.37 -8.45,-72.58 2.09,-53.8 -4.38,-10.92 10.37,-45.23l57.98 71.52 63.98 -22.1c-37.98,-98.1 -49.53,-65.71 84.13,-85.9l-10.81 98 8.61 -7.87 64.45 -37.14c-0.22,-145.57 -3.89,-10.33 28.5,-125.72l-412.74 78.87z"/>
   <path class="fil2" d="M1567.29 561.23c43.02,51.33 49.45,59.31 89.57,102.04l107.15 170.9 48.39 8.43c-55.56,-163.34 -244.67,-536.74 -405.69,-316.56 48.58,34.23 -27.65,10.96 63.28,29.23 1.18,0.22 83.99,4.64 97.3,5.96z"/>
   <path class="fil3" d="M1257.24 1116.46l109.39 -125.02c-8.56,-76.19 -12.9,-162.93 19.2,-236.84 70.85,-163.22 97.66,-1.28 97.33,-151.49 -191.87,37.4 -235.81,345.75 -225.92,513.35z"/>
   <path class="fil1" d="M3424.25 1083.33c4.59,46.88 7.09,105.49 18.16,150.76 36.55,149.43 27.03,80.04 79.98,118.69 116.93,-92.99 69.86,-175.17 49.09,-318.14 -31.19,73.8 2.86,66.34 -147.23,48.69z"/>
   <path class="fil1" d="M4002.42 1241.84c57.1,94.06 102.66,124.8 213.85,101.97 -2.79,-93.47 -4.74,-0.19 -48.49,-106.75l-113.44 -126.26 -68.06 4.08c-12.39,102.11 -25.67,58.06 16.14,126.96z"/>
   <path class="fil3" d="M2061.4 1170.44l97.04 -52.25c-45.41,-111.45 -72.11,-193.01 -178.26,-234.89 -25.92,106.04 -11.84,226.06 81.22,287.14z"/>
   <path class="fil5" d="M3084.16 1109.8l40.6 61.3 48.61 -31.7c22.68,-47.17 22.79,-35.74 29.04,-110.45 1.73,-21.07 -5.18,-103.81 -6.39,-129.36l-70.38 -72.18c-57.33,98.51 -41.59,161.27 -41.48,282.39z"/>
   <path class="fil1" d="M2811.77 1275.45c44.93,72.73 96.26,92.96 186.35,63.76 -2.28,-74.97 -6.18,1.62 -49.71,-99.17 -97.74,-72.25 -74.39,-34.89 -111.97,-126.82l-65.49 1.84c-14.78,102.48 -12.72,87.7 40.82,160.39z"/>
   <path class="fil0" d="M2614.02 1033.98l-24.67 208.31c24.34,24.45 3.53,14.78 53.39,38.38 16.4,-97.88 3.49,-82.47 73.65,-161.71l48.79 -148.07c-134.17,-8.35 -48.83,-26.96 -151.16,63.09z"/>
   <path class="fil1" d="M7046.91 1112.82l-109.21 -2.36c8.86,138.52 -23.06,199.37 99.35,251.07 72.84,-100.71 26.18,-112.81 9.86,-248.71z"/>
   <path class="fil3" d="M5448.92 780.01c71.99,133.59 -4.82,190.4 -62.55,311.52 107.26,-7.87 42.07,-12.28 64.09,29.19l88.18 -39.93c20.07,-101.3 -13.83,-236.72 -46.78,-334.09 -2.79,47.4 8.83,33.31 -42.94,33.31z"/>
   <path class="fil3" d="M1769.67 1132.71c114.1,-1.65 43.43,-17.17 78.43,53.54 37.84,-111.75 13.53,-232.17 -35.7,-343.65l-48.39 -8.43 -2.21 19.49 7.87 279.05z"/>
   <path class="fil5" d="M5361.88 860.58l-84.83 129.65 87.55 11.06 68.76 -46.99 22.14 -205.47 -6.88 -98.98c-59.79,75.63 -23.9,2.42 -53.87,93.8 -36.8,112.26 24.42,232.13 -32.87,116.93z"/>
   <path class="fil0" d="M3807.06 1131.94l3.64 109.17c29.45,38.24 -17.1,12.72 43.24,18.53l90.53 -205.07 46.77 -80.6c-152.41,-5.55 -110.71,34.27 -184.18,157.97z"/>
   <path class="fil8" d="M2224.11 1371.42l50.71 55.05c63.46,-97.81 86.92,-218.97 29.82,-323.76 -79.61,94.42 -83.21,163.18 -80.53,268.71z"/>
   <path class="fil9" d="M7304.41 1018.98c61.15,126.31 -2.61,39.01 114.5,124.58l27.06 -53.87c-5.88,-4.27 -14.41,-11.29 -16.99,-13.72l2.03 -140.49c-105.42,-30.6 -97.26,-13.68 -126.6,83.5z"/>
   <path class="fil9" d="M6660.2 1017.69c104.94,132.16 -13.17,91.89 103.17,235.07l22.58 -244.85c-42.62,-106.26 -86.63,-53.83 -125.75,9.78z"/>
   <path class="fil1" d="M3203.48 1137.6l-30.11 1.8 -48.61 31.7 -40.6 -61.3c-6.36,129.76 -41.55,215.66 91.67,244.16l27.65 -216.36z"/>
   <path class="fil0" d="M1712.31 960.26l7.98 177.52 0.59 130.02c33.75,-21.73 20.81,24.35 40.88,-42.72 18.32,-61.23 8.46,-26.77 7.91,-92.37l-7.87 -279.05c-63.61,36.37 -46.81,-72.47 -49.49,106.6z"/>
   <path class="fil1" d="M6660.2 1017.69c10.59,124.58 -11.51,237.8 94.42,310.86 64.24,-103.07 45.89,-195.32 31.33,-320.64l-22.58 244.85c-116.34,-143.18 1.77,-102.91 -103.17,-235.07z"/>
   <path class="fil10" d="M4407.99 940.81l112.37 -20.59 110.24 48.79 8.2 37.29 65.85 -73.58 -29.82 -55.45 -58.46 14.52 -50.85 4.64c-52.55,-8.28 -27.03,-2.72 -62.44,-20.26 -70.82,-35.08 36.4,1.8 -68.1,-39.49l-26.99 104.13z"/>
   <path class="fil9" d="M3853.94 1259.64l12.65 83.87 50.08 -68.98c136.79,-93.5 -121.34,37.69 25.56,-10.59 3.01,-0.99 13.75,-4.19 17.1,-5.33 4,-1.36 16.76,-6.25 20.44,-7.57 4.12,-1.47 15.37,-5.48 22.65,-9.2 -41.81,-68.9 -28.53,-24.85 -16.14,-126.96 -67.14,6.73 -44.05,17.72 -41.81,-60.31l-90.53 205.07z"/>
   <polygon class="fil3" points="1659.25,838.81 1648,1138.56 1720.29,1137.78 1712.31,960.26 1673.55,779.06 "/>
   <polygon class="fil11" points="2125.16,1657.05 2176.13,1676.98 2274.82,1426.47 2224.11,1371.42 "/>
   <path class="fil9" d="M2642.74 1280.67c19.56,-6.62 55.78,-13.56 63.76,-13.68 8.01,-0.11 82.33,7.95 105.27,8.46 -53.54,-72.69 -55.6,-57.91 -40.82,-160.39l-54.56 3.9c-70.16,79.24 -57.25,63.83 -73.65,161.71z"/>
   <path class="fil9" d="M5653.58 1016.59l126.41 142.56 13.39 -67.84 -30.63 -30.41c-2.5,-2.65 -12.47,-7.8 -14.52,-17.61 -2.06,-10.04 -8.2,-13.46 -12.8,-18.02l43.61 -91.08c-121.75,-27.62 -99.72,-1.66 -125.46,82.4z"/>
   <path class="fil5" d="M1659.25 838.81l14.3 -59.75 38.76 181.2c2.68,-179.07 -14.12,-70.23 49.49,-106.6l2.21 -19.49 -107.15 -170.9 -48.79 13.79 51.18 161.75z"/>
   <path class="fil10" d="M4449.07 728.39l-8.83 0.92c57.07,100.71 36.44,83.06 142.3,107.77l60.86 -1.18 91.41 -15.44 -74.9 -124.47 -7.91 101.67c-132.23,-7.24 -102.11,-7.5 -202.93,-69.27z"/>
   <path class="fil2" d="M6626.66 745.3c67.99,74.9 41.88,58.47 158.55,55.74 -3.86,-114.53 -25.55,-201.49 -152.19,-156.56 101.89,84.09 50.71,-8.57 125.94,133.69l-132.3 -32.87z"/>
   <path class="fil1" d="M5262.53 1218.24l29.49 12.17c91.89,-19.42 87.66,-18.94 158.44,-109.69 -22.02,-41.47 43.17,-37.06 -64.09,-29.19l-123.84 126.71z"/>
   <path class="fil5" d="M6626.66 745.3l132.3 32.87c-75.23,-142.26 -24.05,-49.6 -125.94,-133.69 -61.29,44.45 -77.55,51.99 -6.36,100.82z"/>
   <path class="fil12" d="M4340.12 730.12l15 9.11 85.12 -9.92 8.83 -0.92c-11.15,-80.38 -26.74,-60.89 55.89,-48.98 -61.34,-30.08 -176.21,-62.69 -229.63,16.36 118.47,-5.15 35.77,-10.81 64.79,34.35z"/>
   <path class="fil8" d="M5209.43 1096.27l92.15 -4.15 63.02 -90.83 -87.55 -11.06c-31.21,11.25 -11.98,-13.61 -44.86,31.69 -43.16,59.42 -5.11,-15.04 -22.76,74.35z"/>
   <path class="fil0" d="M4578.31 544.06c-3.93,54.93 -16.91,42.06 37.66,39.93l35.66 -27.83 10.81 -98c-133.66,20.19 -122.11,-12.2 -84.13,85.9z"/>
   <path class="fil9" d="M2836.44 1113.22c37.58,91.93 14.23,54.57 111.97,126.82 -30.34,-103.58 -19.05,-115.93 -81.82,-188.52l-30.15 61.7z"/>
   <polygon class="fil7" points="2272.76,1040.56 2291.99,1083.18 2357.81,1076.86 2384.21,1011.3 2334.13,951.32 "/>
   <path class="fil8" d="M5140.97 1322.44l21.84 65.2c71.63,-172.64 30.92,-3.83 129.21,-157.23l-29.49 -12.17 -121.56 104.2z"/>
   <polygon class="fil13" points="4616.37,891.79 4674.83,877.27 4704.65,932.72 4734.81,820.46 4643.4,835.9 "/>
   <polygon class="fil9" points="4054.34,1110.8 4167.78,1237.06 4086.11,1049.13 "/>
   <path class="fil14" d="M4496.76 610.21c101.04,8.64 76.59,32.94 119.21,-26.22 -54.57,2.13 -41.59,15 -37.66,-39.93l-63.98 22.1 -17.57 44.05z"/>
   <path class="fil0" d="M4454.43 612.45l42.33 -2.24 17.57 -44.05 -57.98 -71.52c-14.75,34.31 -8.28,-8.57 -10.37,45.23 -0.26,6.21 7.13,57.06 8.45,72.58z"/>
   <path class="fil15" d="M4289.89 777.77c-5.81,77.14 -26.4,61.74 44.23,61.74l21 -100.28 -15 -9.11 -50.23 47.65z"/>
   <path class="fil16" d="M5011.83 504.46c8.42,-3.46 20.67,-17.84 25.37,-10.15 4.78,7.79 19.79,-7.32 26.11,-9.16 38.24,-10.95 37.36,-10.99 82,-20.44l-97.26 -38.24c-55.63,45.23 -16.4,-3.79 -36.22,77.99z"/>
   <path class="fil15" d="M4831.25 742.18l-85.12 -51.04 -21.8 -3.38 77.62 112.62c49.01,-28.9 15.07,9.38 29.3,-58.2z"/>
   <path class="fil11" d="M4878.98 1205.96c52.25,-26.37 52.4,53.61 36.99,-51.52l-130.57 -22.87 93.58 74.39z"/>
   <path class="fil9" d="M3237.82 1100.13c58.36,-4.81 41.89,10.26 41.89,-51.95l-58.62 -25.93c-59.05,152.34 -25.07,36.15 16.73,77.88z"/>
   <path class="fil9" d="M3773.64 1120.5l-20.01 -24.96c-39.89,48.24 -65.3,35.88 -7.83,129.98l27.84 -105.02z"/>
   <polygon class="fil0" points="4630.6,969.01 4520.36,920.22 4505.73,990.23 "/>
   <path class="fil9" d="M7446.67 978.24c100.86,74.05 37.87,-5.15 158.22,85.6l-68.06 -113.18c-19.97,46.52 36.44,55.89 -90.16,27.58z"/>
   <path class="fil9" d="M5794.92 980.56c105.97,70.48 40.34,-7.98 158.92,85.01l-68.61 -111.49c-21.51,48.28 29.6,46.96 -90.31,26.48z"/>
   <path class="fil8" d="M5144.13 1151.35c130.2,-42.76 47.65,-5.51 65.3,-55.08l-65.41 -21.66 0.11 76.74z"/>
   <path class="fil9" d="M2554.23 1109.14l-32.54 -3.38c-49.12,126.85 -29.71,40.56 4.49,115.46l28.05 -112.08z"/>
   <path class="fil16" d="M4378.87 522.03c-28.49,-56.59 10.19,-33.86 -38.42,-57.73 -64.68,-7.64 -55.75,-26.58 -50.82,29.75l89.24 27.98z"/>
   <path class="fil15" d="M4515.55 679.63c23.09,103.99 -24.2,38.2 81.7,85.6 -61.52,-129.8 12.13,-36.14 -81.7,-85.6z"/>
   <path class="fil0" d="M7446.67 978.24c126.6,28.31 70.19,18.94 90.16,-27.58 -85.82,-17.24 -45.12,-23.75 -90.16,27.58z"/>
   <path class="fil0" d="M5794.92 980.56c119.91,20.48 68.8,21.8 90.31,-26.48l-53.35 -18.16 -36.96 44.64z"/>
   <polygon class="fil11" points="4565.52,896.43 4616.37,891.79 4643.4,835.9 4582.54,837.08 "/>
   <path class="fil16" d="M1608.07 677.06l48.79 -13.79c-40.12,-42.73 -46.55,-50.71 -89.57,-102.04l40.78 115.83z"/>
   <path class="fil9" d="M2384.21 1011.3l11.43 -72.96c-146.42,-33.53 -16.91,-7.64 -61.51,12.98l50.08 59.98z"/>
   <polygon class="fil12" points="4831.25,742.18 4832.87,671.03 4804.26,684.74 4746.13,691.14 "/>
   <path class="fil11" d="M1720.88 1267.8c-63.1,43.47 -42.88,-114.94 -42.88,43.36 69.76,0 61.67,19.37 42.88,-43.36z"/>
   <path class="fil12" d="M4334.12 839.51c-70.63,0 -50.04,15.4 -44.23,-61.74 -26.4,53.32 -51.63,-76.67 -13.09,82.58l57.32 -20.84z"/>
   <path class="fil5" d="M6226.75 904.63c94.21,-29.13 36.88,24.56 79.53,-70.16l-79.53 70.16z"/>
   <path class="fil17" d="M4305.7 1047.4l-79.86 55.27c138.51,-23.75 43.42,5.44 79.86,-55.27z"/>
   <polygon class="fil9" points="7694.43,1219.08 7742.96,1142.79 7675.49,1189.37 "/>
   <polygon class="fil17" points="1514.96,1373.3 1518.13,1306.08 1476.61,1339.28 "/>
   <polygon class="fil9" points="6042.05,1213.24 6091.55,1142.93 6023.82,1188.56 "/>
   <polygon class="fil18" points="4328.72,1030.64 4305.7,1047.4 "/>
  </g>
 </g>
</svg>
